<svg width="512" height="512" viewBox="0 0 512 512" fill="none" xmlns="http://www.w3.org/2000/svg">
<path d="M432 476H176C164.33 476 153.139 471.364 144.887 463.113C136.636 454.861 132 443.67 132 432V424.8C104.701 418.475 80.35 403.091 62.9147 381.154C45.4794 359.217 35.9883 332.022 35.9883 304C35.9883 275.978 45.4794 248.783 62.9147 226.846C80.35 204.91 104.701 189.525 132 183.2V80.0001C132 68.3306 136.636 57.139 144.887 48.8874C153.139 40.6358 164.33 36.0001 176 36.0001H354.72C360.519 35.9893 366.263 37.1293 371.619 39.3539C376.974 41.5785 381.835 44.8436 385.92 48.9601L463.04 126.08C467.254 130.259 470.575 135.25 472.803 140.751C475.03 146.251 476.118 152.147 476 158.08V432C476 443.67 471.364 454.861 463.113 463.113C454.861 471.364 443.669 476 432 476ZM156 428V432C156 437.304 158.107 442.391 161.858 446.142C165.609 449.893 170.696 452 176 452H432C437.304 452 442.391 449.893 446.142 446.142C449.893 442.391 452 437.304 452 432V172H384C372.33 172 361.139 167.364 352.887 159.113C344.636 150.861 340 139.67 340 128V60.0001H176C170.696 60.0001 165.609 62.1072 161.858 65.8579C158.107 69.6087 156 74.6957 156 80.0001V180H160C192.887 180 224.427 193.064 247.681 216.319C270.936 239.573 284 271.113 284 304C284 336.887 270.936 368.427 247.681 391.681C224.427 414.936 192.887 428 160 428H156ZM160 204C140.222 204 120.888 209.865 104.443 220.853C87.9978 231.841 75.1806 247.459 67.6118 265.732C60.043 284.004 58.0627 304.111 61.9212 323.509C65.7798 342.907 75.3038 360.726 89.2891 374.711C103.275 388.696 121.093 398.22 140.491 402.079C159.889 405.937 179.996 403.957 198.268 396.388C216.541 388.819 232.159 376.002 243.147 359.557C254.135 343.112 260 323.778 260 304C260 277.478 249.464 252.043 230.711 233.289C211.957 214.536 186.522 204 160 204ZM364 62.2401V128C364 133.304 366.107 138.391 369.858 142.142C373.609 145.893 378.696 148 384 148H449.76C448.77 146.184 447.531 144.514 446.08 143.04L368.96 65.9201C367.486 64.4687 365.816 63.2301 364 62.2401ZM400 364H320C316.817 364 313.765 362.736 311.515 360.485C309.264 358.235 308 355.183 308 352C308 348.817 309.264 345.765 311.515 343.515C313.765 341.264 316.817 340 320 340H400C403.183 340 406.235 341.264 408.485 343.515C410.736 345.765 412 348.817 412 352C412 355.183 410.736 358.235 408.485 360.485C406.235 362.736 403.183 364 400 364ZM136 340C132.913 339.764 130.041 338.328 128 336C126.032 333.8 124.944 330.952 124.944 328C124.944 325.048 126.032 322.2 128 320L148.48 299.52V256C148.48 252.817 149.744 249.765 151.995 247.515C154.245 245.264 157.297 244 160.48 244C163.663 244 166.715 245.264 168.965 247.515C171.216 249.765 172.48 252.817 172.48 256V304C172.477 307.182 171.211 310.232 168.96 312.48L144 336C141.959 338.328 139.087 339.764 136 340ZM400 300H336C332.817 300 329.765 298.736 327.515 296.485C325.264 294.235 324 291.183 324 288C324 284.817 325.264 281.765 327.515 279.515C329.765 277.264 332.817 276 336 276H400C403.183 276 406.235 277.264 408.485 279.515C410.736 281.765 412 284.817 412 288C412 291.183 410.736 294.235 408.485 296.485C406.235 298.736 403.183 300 400 300ZM400 236H320C316.817 236 313.765 234.736 311.515 232.485C309.264 230.235 308 227.183 308 224C308 220.817 309.264 217.765 311.515 215.515C313.765 213.264 316.817 212 320 212H400C403.183 212 406.235 213.264 408.485 215.515C410.736 217.765 412 220.817 412 224C412 227.183 410.736 230.235 408.485 232.485C406.235 234.736 403.183 236 400 236ZM288 172H240C236.817 172 233.765 170.736 231.515 168.485C229.264 166.235 228 163.183 228 160C228 156.817 229.264 153.765 231.515 151.515C233.765 149.264 236.817 148 240 148H288C291.183 148 294.235 149.264 296.485 151.515C298.736 153.765 300 156.817 300 160C300 163.183 298.736 166.235 296.485 168.485C294.235 170.736 291.183 172 288 172Z" fill="#8544FF"/>
</svg>
