<svg width="512" height="512" viewBox="0 0 512 512" fill="none" xmlns="http://www.w3.org/2000/svg">
<path d="M353.298 511.824C352.149 511.883 350.996 511.927 349.84 511.956C350.996 511.927 352.149 511.883 353.298 511.824ZM105.951 511.729L105.952 511.729L105.951 511.729ZM166.323 511.716C165.93 511.731 165.537 511.731 165.145 511.716C165.537 511.731 165.93 511.731 166.323 511.716ZM109.17 511.382C108.935 511.433 108.698 511.479 108.461 511.519C108.698 511.479 108.935 511.433 109.17 511.382ZM366.893 510.441C364.103 510.869 361.285 511.211 358.442 511.464H358.441C360.147 511.312 361.844 511.128 363.531 510.913C364.656 510.77 365.777 510.612 366.893 510.441ZM102.733 511.382V511.381V511.382ZM111.933 510.49C111.485 510.685 111.029 510.855 110.568 511.004C111.029 510.855 111.485 510.685 111.933 510.49ZM39.9531 510.794C40.0253 510.82 40.0984 510.844 40.1709 510.869C40.1036 510.846 40.0357 510.824 39.9688 510.8L39.9531 510.794ZM324.435 510.219C325.386 510.375 326.341 510.522 327.3 510.658C326.341 510.522 325.386 510.375 324.435 510.219ZM112.927 510.014C112.709 510.128 112.489 510.237 112.268 510.34C112.489 510.237 112.709 510.128 112.927 510.014ZM378.439 508.149C376.816 508.547 375.181 508.914 373.535 509.252H373.534C374.083 509.139 374.63 509.024 375.177 508.904C376.269 508.666 377.357 508.414 378.439 508.149ZM217.731 509.053C217.784 509.09 217.838 509.125 217.892 509.161C217.849 509.133 217.807 509.105 217.765 509.076L217.731 509.053ZM406.385 3.00098C446.566 3.00098 478.949 35.6773 478.949 75.5254V196.243C478.949 202.87 473.576 208.243 466.949 208.243H357.898V245.479L360.578 245.768C426.7 252.88 478.361 309.023 478.361 377C478.361 449.782 419.143 509 346.361 509C315.222 509 286.578 498.157 263.978 480.052L261.892 478.381L234.729 505.26C230.049 509.889 222.514 509.886 217.841 505.252L196.009 483.614L174.185 505.251C169.579 509.816 162.198 509.887 157.506 505.464L157.285 505.25L135.758 483.901L114.437 505.216C109.75 509.9 102.153 509.9 97.4668 505.215L75.0283 482.774L53.7178 505.029C46.2665 512.81 33.0512 507.471 33.0508 496.73V74.9844C33.0508 35.2952 65.3451 3 105.034 3L406.385 3.00098ZM115.711 508.123C115.518 508.289 115.321 508.448 115.121 508.603C115.321 508.448 115.518 508.289 115.711 508.123ZM235.438 508.617C235.392 508.653 235.345 508.688 235.298 508.724C235.345 508.688 235.392 508.653 235.438 508.617ZM175.162 508.398C175.028 508.507 174.893 508.612 174.757 508.715C174.893 508.612 175.028 508.507 175.162 508.398ZM156.3 508.392C156.427 508.495 156.556 508.594 156.686 508.692C156.556 508.594 156.427 508.495 156.3 508.392ZM155.904 508.058C155.976 508.12 156.048 508.182 156.12 508.242C156.048 508.182 155.976 508.12 155.904 508.058ZM313.182 507.872V507.873V507.872ZM54.9902 507.97C54.926 508.027 54.8597 508.082 54.7949 508.138C54.8643 508.078 54.9351 508.019 55.0039 507.957L54.9902 507.97ZM216.001 507.646C216.021 507.665 216.041 507.683 216.062 507.702C216.043 507.685 216.023 507.668 216.005 507.65L216.001 507.646ZM309.139 506.778C309.922 507.003 310.708 507.221 311.496 507.432C310.708 507.221 309.922 507.003 309.139 506.778ZM384.873 506.404H384.874H384.873ZM306.329 505.938C307.092 506.176 307.858 506.405 308.627 506.629C307.858 506.405 307.092 506.176 306.329 505.938ZM389.613 504.896H389.614H389.613ZM295.928 502.222C297.153 502.717 298.386 503.196 299.628 503.656C298.386 503.196 297.153 502.717 295.928 502.222ZM394.276 503.217H394.277H394.276ZM293.089 501.036V501.037V501.036ZM410.657 495.683C407.789 497.243 404.857 498.702 401.868 500.056C404.857 498.702 407.789 497.243 410.657 495.683ZM286.723 498.092C287.559 498.506 288.401 498.911 289.247 499.308C289.67 499.506 290.095 499.702 290.521 499.896V499.897C289.244 499.315 287.978 498.713 286.723 498.092ZM414.913 493.267H414.914H414.913ZM268.762 487.401C269.519 487.935 270.282 488.462 271.051 488.98C272.204 489.759 273.37 490.519 274.548 491.263C275.333 491.758 276.125 492.246 276.921 492.726C274.533 491.287 272.192 489.777 269.902 488.197L268.762 487.401ZM424.459 487.06H424.46H424.459ZM428.376 484.165H428.377H428.376ZM346.361 269C286.808 269 238.361 317.446 238.361 377C238.361 436.554 286.808 485 346.361 485C405.915 485 454.361 436.554 454.361 377C454.361 317.446 405.915 269 346.361 269ZM262.102 482.393C262.758 482.918 263.419 483.437 264.085 483.95C263.419 483.437 262.757 482.918 262.102 482.393ZM343.655 481.966H343.656H343.655ZM326.51 480.118C327.367 480.283 328.228 480.436 329.093 480.58C328.228 480.436 327.367 480.283 326.51 480.118ZM438.277 475.79C437.091 476.894 435.886 477.978 434.661 479.04H434.66C435.069 478.686 435.475 478.329 435.879 477.971C436.687 477.253 437.487 476.526 438.277 475.79ZM105.034 27C78.5732 27 57.0508 48.5236 57.0508 74.9844V466.847L66.1758 457.319C70.7158 452.579 78.4336 452.239 83.3281 457.134L105.956 479.761L127.243 458.48L127.464 458.265C132.15 453.809 139.557 453.867 144.177 458.447L165.738 479.831L187.559 458.195C192.237 453.559 199.777 453.557 204.455 458.194L226.295 479.841L244.927 461.406L243.24 459.298C178.809 378.732 228.315 257.663 331.24 245.871L333.898 245.567V75.5254C333.898 59.1202 339.378 43.9796 348.601 31.8125L352.248 27H105.034ZM321.411 479.005H321.412H321.411ZM316.407 477.648H316.408H316.407ZM306.711 474.228C307.994 474.753 309.29 475.251 310.598 475.727C309.692 475.398 308.792 475.058 307.898 474.705L306.711 474.228ZM299.736 471.069C300.116 471.259 300.498 471.445 300.881 471.63L302.031 472.177C301.261 471.817 300.496 471.447 299.736 471.069ZM449.455 464.067C447.71 466.13 445.905 468.141 444.041 470.096H444.04C444.413 469.705 444.783 469.311 445.151 468.916C446.624 467.335 448.059 465.718 449.455 464.067ZM290.379 465.796C290.902 466.127 291.428 466.455 291.957 466.777C291.428 466.455 290.902 466.127 290.379 465.796ZM287.696 464.043H287.695H287.696ZM456.421 455.098H456.422H456.421ZM128.417 453.864H128.418C127.988 454.104 127.568 454.367 127.159 454.652C126.955 454.795 126.753 454.944 126.554 455.098C126.454 455.175 126.356 455.253 126.258 455.333C126.062 455.493 125.869 455.658 125.68 455.829L125.398 456.09C126.328 455.206 127.343 454.464 128.417 453.864ZM189.723 453.094C189.502 453.196 189.283 453.304 189.066 453.417C188.524 453.7 187.996 454.018 187.484 454.372C187.28 454.513 187.079 454.661 186.88 454.813C186.78 454.89 186.682 454.968 186.584 455.047C186.388 455.205 186.195 455.369 186.006 455.539L185.724 455.798C186.841 454.745 188.079 453.896 189.393 453.251L189.723 453.094ZM204.22 454.162C204.841 454.57 205.439 455.028 206.008 455.537C205.534 455.113 205.04 454.724 204.528 454.37L204.22 454.162ZM145.441 455.537V455.538V455.537ZM235.382 453.792C235.692 454.236 236.004 454.68 236.32 455.122C236.004 454.68 235.692 454.236 235.382 453.792ZM142.982 453.836C143.305 454.014 143.623 454.205 143.935 454.409L143.936 454.41C143.831 454.342 143.727 454.275 143.621 454.21C143.411 454.08 143.198 453.955 142.982 453.836ZM65.999 453.502V453.503V453.502ZM133.549 452.125C132.837 452.229 132.131 452.384 131.438 452.591C131.322 452.625 131.207 452.661 131.092 452.698C130.632 452.847 130.179 453.019 129.732 453.213C130.848 452.727 132.011 452.382 133.193 452.181L133.549 452.125ZM197.793 451.824C199.454 452.022 201.088 452.496 202.62 453.249L202.947 453.415C202.73 453.302 202.511 453.195 202.29 453.093C202.18 453.042 202.068 452.992 201.957 452.944C201.734 452.848 201.51 452.758 201.283 452.673C201.17 452.63 201.056 452.589 200.942 452.55C200.715 452.471 200.485 452.397 200.255 452.329C200.139 452.295 200.023 452.263 199.907 452.231C199.211 452.045 198.505 451.909 197.793 451.824ZM141.665 453.188V453.189V453.188ZM66.9248 452.878H66.9258H66.9248ZM190.392 452.806C191.964 452.172 193.622 451.815 195.291 451.735C194.814 451.758 194.338 451.803 193.865 451.871C193.51 451.922 193.156 451.986 192.805 452.062C191.985 452.241 191.178 452.489 190.392 452.806ZM134.263 452.038C136.169 451.852 138.105 452.031 139.957 452.573C139.494 452.438 139.025 452.325 138.554 452.235C138.318 452.19 138.081 452.151 137.844 452.117C137.606 452.084 137.368 452.055 137.13 452.033C136.892 452.011 136.653 451.994 136.414 451.983C136.175 451.972 135.936 451.967 135.696 451.968C135.576 451.968 135.457 451.97 135.337 451.973C134.978 451.982 134.62 452.003 134.263 452.038ZM463.449 444.145C462.364 446.029 461.236 447.885 460.064 449.711C461.236 447.885 462.364 446.029 463.449 444.145ZM74.5537 450.613H74.5527H74.5537ZM260.759 437.742C261.492 438.772 262.243 439.787 263.012 440.789C262.243 439.787 261.492 438.772 260.759 437.742ZM467.308 436.946H467.309H467.308ZM256.584 431.405C257.023 432.127 257.471 432.843 257.927 433.553L258.616 434.613C257.92 433.557 257.242 432.488 256.584 431.405ZM223.375 432.848V432.849V432.848ZM254.054 427.008H254.053H254.054ZM472.578 424.915H472.579H472.578ZM252.865 424.761H252.866H252.865ZM478.266 405.815C477.55 409.093 476.715 412.327 475.766 415.512C476.082 414.45 476.386 413.384 476.677 412.312C476.968 411.239 477.246 410.161 477.511 409.078C477.776 407.996 478.027 406.908 478.266 405.815ZM247.308 411.856C247.878 413.473 248.487 415.071 249.134 416.65C248.487 415.071 247.878 413.473 247.308 411.856ZM246.09 408.189H246.091H246.09ZM241.498 382.396C241.816 388.65 242.685 394.762 244.056 400.684H244.055C243.663 398.992 243.312 397.284 243.004 395.562C242.85 394.701 242.706 393.837 242.573 392.969C242.307 391.233 242.084 389.483 241.904 387.721C241.725 385.958 241.589 384.183 241.498 382.396ZM479.536 399.202H479.537H479.536ZM480.825 389.08H480.826H480.825ZM481.262 382.211H481.263H481.262ZM243.004 358.438C242.079 363.603 241.534 368.899 241.396 374.294H241.396C241.418 373.395 241.453 372.498 241.498 371.604C241.589 369.817 241.725 368.042 241.904 366.279C242.084 364.517 242.307 362.767 242.573 361.031C242.706 360.163 242.85 359.299 243.004 358.438ZM480.751 364.115C480.852 365.176 480.941 366.239 481.018 367.307C480.941 366.239 480.852 365.176 480.751 364.115ZM479.515 354.671H479.516H479.515ZM477.263 343.926C477.772 345.942 478.237 347.976 478.654 350.027C478.237 347.976 477.772 345.942 477.263 343.926ZM245.713 347.046H245.714H245.713ZM249.481 336.516C249.365 336.793 249.249 337.071 249.135 337.35C248.488 338.929 247.879 340.527 247.309 342.144C247.879 340.527 248.487 338.929 249.134 337.35C249.248 337.071 249.365 336.793 249.481 336.516ZM472.604 329.155H472.605H472.604ZM254.053 326.992H254.054H254.053ZM258.616 319.387C257.92 320.443 257.242 321.512 256.584 322.595C257.023 321.873 257.47 321.157 257.926 320.447L258.616 319.387ZM468.387 319.274H468.388H468.387ZM260.032 317.291H260.033H260.032ZM263.011 313.211C262.755 313.545 262.501 313.88 262.249 314.217L261.498 315.232C261.994 314.552 262.499 313.879 263.011 313.211ZM464.177 311.139H464.178H464.177ZM271.265 303.686C269.21 305.79 267.243 307.979 265.369 310.249H265.368C267.242 307.979 269.209 305.79 271.264 303.686H271.265ZM456.007 298.327H456.008H456.007ZM451.41 292.302H451.411H451.41ZM446.49 286.547C447.167 287.296 447.837 288.052 448.497 288.815C447.837 288.052 447.167 287.296 446.49 286.547ZM291.957 287.223C291.456 287.527 290.958 287.837 290.463 288.149C290.958 287.837 291.456 287.527 291.957 287.223ZM302.031 281.823C301.261 282.183 300.496 282.553 299.736 282.931C300.116 282.742 300.497 282.555 300.88 282.37L302.031 281.823ZM310.926 278.155C309.91 278.521 308.901 278.899 307.899 279.295L306.711 279.772C308.101 279.203 309.507 278.666 310.926 278.155ZM321.411 274.995H321.412H321.411ZM329.093 273.42C328.228 273.564 327.367 273.717 326.51 273.882C327.367 273.717 328.228 273.564 329.093 273.42ZM432.283 272.954H432.284H432.283ZM335.641 272.543H335.642H335.641ZM426.312 268.289H426.313H426.312ZM362.48 242.965C383.542 245.482 403.129 252.866 420.082 263.958H420.081C419.657 263.681 419.232 263.405 418.805 263.133C417.951 262.588 417.09 262.052 416.223 261.525C414.922 260.736 413.607 259.967 412.278 259.221C411.393 258.723 410.5 258.236 409.603 257.758C407.806 256.802 405.987 255.884 404.144 255.008C403.222 254.57 402.295 254.141 401.362 253.724C400.896 253.515 400.428 253.309 399.959 253.105C399.021 252.698 398.077 252.301 397.128 251.914C396.653 251.721 396.177 251.53 395.7 251.342C391.883 249.838 387.98 248.503 384.003 247.347C382.511 246.913 381.009 246.505 379.497 246.122C377.481 245.611 375.447 245.146 373.396 244.728C372.371 244.518 371.341 244.321 370.308 244.135C367.723 243.67 365.113 243.28 362.48 242.965ZM468.615 211.15C468.444 211.169 468.271 211.186 468.098 211.199C468.271 211.186 468.444 211.169 468.615 211.15ZM476.245 208.015C476.308 207.965 476.37 207.916 476.432 207.865C476.37 207.916 476.308 207.965 476.245 208.015ZM406.424 27C379.664 27 357.898 48.7655 357.898 75.5254V184.243H454.949V75.5254C454.949 48.7655 433.183 27 406.424 27ZM451.714 70.8945C451.868 72.4175 451.949 73.9623 451.949 75.5254C451.949 73.9624 451.868 72.4174 451.714 70.8945ZM361.828 66.3506C361.295 68.945 360.983 71.6192 360.913 74.3525C360.953 72.793 361.071 71.2526 361.265 69.7354C361.361 68.9765 361.477 68.2234 361.61 67.4766C361.678 67.0995 361.751 66.7244 361.828 66.3506ZM60.21 71.207C60.1786 71.5824 60.1529 71.959 60.1309 72.3369C60.1529 71.959 60.1786 71.5824 60.21 71.207ZM451.426 68.6279C451.462 68.8681 451.495 69.1092 451.528 69.3506C451.495 69.1092 451.462 68.8681 451.426 68.6279ZM60.4424 69.0566C60.4827 68.7517 60.5239 68.4475 60.5703 68.1445C60.5239 68.4475 60.4827 68.7517 60.4424 69.0566ZM451.242 67.5117C451.288 67.7677 451.329 68.0248 451.37 68.2822C451.329 68.0248 451.288 67.7677 451.242 67.5117ZM60.6309 67.7764C60.6678 67.5477 60.7047 67.3193 60.7451 67.0918C60.7047 67.3193 60.6678 67.5477 60.6309 67.7764ZM451.035 66.4316C451.083 66.6646 451.126 66.8986 451.17 67.1328C451.126 66.8986 451.083 66.6646 451.035 66.4316ZM60.8779 66.3867C60.9013 66.2663 60.9229 66.1455 60.9473 66.0254C60.9229 66.1455 60.9013 66.2663 60.8779 66.3867ZM481.311 65.6992C481.327 65.8219 481.343 65.9445 481.358 66.0674C481.343 65.9445 481.327 65.8219 481.311 65.6992ZM450.789 65.292C450.837 65.498 450.88 65.7051 450.925 65.9121C450.88 65.7051 450.837 65.498 450.789 65.292ZM61.0859 65.3789C61.1196 65.2248 61.1513 65.0705 61.1865 64.917C61.1513 65.0705 61.1196 65.2248 61.0859 65.3789ZM364.481 57.8213C363.507 60.1208 362.72 62.5172 362.132 64.9902C362.72 62.5172 363.507 60.1208 364.481 57.8213ZM450.527 64.2207C450.58 64.4254 450.629 64.6311 450.679 64.8369C450.629 64.6311 450.58 64.4254 450.527 64.2207ZM61.3555 64.2207C61.3862 64.0961 61.4145 63.9709 61.4463 63.8467C61.4145 63.9709 61.3862 64.0961 61.3555 64.2207ZM450.238 63.1514C450.3 63.3696 450.358 63.589 450.417 63.8086C450.358 63.589 450.3 63.3696 450.238 63.1514ZM61.5879 63.3164C61.6362 63.1368 61.683 62.957 61.7334 62.7783C61.683 62.957 61.6362 63.1368 61.5879 63.3164ZM480.7 61.8203C480.757 62.1302 480.813 62.4407 480.866 62.752C480.813 62.4407 480.757 62.1302 480.7 61.8203ZM449.924 62.0889C449.982 62.2761 450.037 62.4641 450.093 62.6523C450.037 62.4641 449.982 62.2761 449.924 62.0889ZM61.9141 62.165C61.9575 62.0191 62 61.8729 62.0449 61.7275C62 61.8729 61.9575 62.0191 61.9141 62.165ZM449.586 61.042C449.65 61.2339 449.711 61.4271 449.773 61.6201C449.711 61.4271 449.65 61.2339 449.586 61.042ZM62.2285 61.1543C62.2801 60.995 62.3305 60.8353 62.3838 60.6768C62.3305 60.8353 62.2801 60.995 62.2285 61.1543ZM449.213 59.9775C449.276 60.1497 449.336 60.3229 449.396 60.4961C449.336 60.323 449.276 60.1497 449.213 59.9775ZM62.542 60.2207C62.613 60.0168 62.6839 59.8129 62.7578 59.6104C62.6839 59.8129 62.613 60.0168 62.542 60.2207ZM32.1895 57.167C32.4101 56.265 32.6474 55.3694 32.9004 54.4805C32.6474 55.3694 32.4101 56.265 32.1895 57.167ZM448.832 58.9697C448.894 59.1286 448.954 59.2885 449.015 59.4482C448.954 59.2885 448.894 59.1286 448.832 58.9697ZM62.9531 59.0908C63.0104 58.9397 63.0662 58.7881 63.125 58.6377C63.0662 58.7881 63.0104 58.9397 62.9531 59.0908ZM448.4 57.9072C448.484 58.1046 448.564 58.3032 448.645 58.502C448.564 58.3032 448.484 58.1046 448.4 57.9072ZM63.3545 58.0703C63.4166 57.9178 63.4773 57.7649 63.541 57.6133C63.4773 57.7649 63.4166 57.9178 63.3545 58.0703ZM447.969 56.917C448.065 57.1318 448.16 57.3479 448.253 57.5645C448.16 57.3479 448.065 57.1318 447.969 56.917ZM63.8145 56.9814C63.8623 56.8723 63.9093 56.7629 63.958 56.6543C63.9093 56.7629 63.8623 56.8723 63.8145 56.9814ZM447.503 55.916C447.598 56.1134 447.69 56.3118 447.782 56.5107C447.69 56.3118 447.598 56.1134 447.503 55.916ZM64.248 56.0225C64.3017 55.9075 64.3546 55.7922 64.4092 55.6777C64.3546 55.7922 64.3017 55.9075 64.248 56.0225ZM447.03 54.957C447.117 55.1281 447.202 55.3003 447.287 55.4727C447.202 55.3003 447.117 55.1281 447.03 54.957ZM64.6973 55.0879C64.764 54.9532 64.8304 54.8185 64.8984 54.6846C64.8304 54.8185 64.764 54.9532 64.6973 55.0879ZM446.525 53.9941C446.612 54.1552 446.697 54.3173 446.782 54.4795C446.697 54.3173 446.612 54.1552 446.525 53.9941ZM65.1504 54.1982C65.239 54.0289 65.3273 53.8595 65.418 53.6914C65.3273 53.8595 65.239 54.0289 65.1504 54.1982ZM445.987 53.0225C446.085 53.193 446.179 53.3652 446.274 53.5371C446.179 53.3652 446.085 53.193 445.987 53.0225ZM65.6963 53.1875C65.7756 53.0449 65.8547 52.9024 65.9355 52.7607C65.8547 52.9024 65.7756 53.0449 65.6963 53.1875ZM445.43 52.0732C445.538 52.2532 445.645 52.4346 445.751 52.6162C445.645 52.4346 445.538 52.2532 445.43 52.0732ZM66.2188 52.2715C66.3049 52.1248 66.3917 51.9786 66.4795 51.833C66.3917 51.9786 66.3049 52.1248 66.2188 52.2715ZM34.2979 50.0928C34.0942 50.6697 33.8968 51.2497 33.707 51.833C33.8968 51.2497 34.0942 50.6697 34.2979 50.0928ZM369.954 48.3037C369.517 48.8881 369.093 49.4833 368.684 50.0889C369.093 49.4833 369.517 48.8881 369.954 48.3037ZM444.837 51.1182C444.955 51.303 445.07 51.4892 445.186 51.6758C445.07 51.4892 444.955 51.303 444.837 51.1182ZM66.7832 51.3379C66.8678 51.2015 66.9521 51.0651 67.0381 50.9297C66.9521 51.0651 66.8678 51.2015 66.7832 51.3379ZM444.257 50.2314C444.373 50.4053 444.488 50.5803 444.603 50.7559C444.488 50.5803 444.373 50.4053 444.257 50.2314ZM67.3613 50.4307C67.4465 50.3004 67.5307 50.1694 67.6172 50.04C67.5307 50.1694 67.4465 50.3004 67.3613 50.4307ZM443.641 49.3369C443.761 49.5073 443.88 49.6785 443.998 49.8506C443.88 49.6785 443.761 49.5073 443.641 49.3369ZM67.96 49.5381C68.058 49.3957 68.1562 49.2535 68.2559 49.1123C68.1562 49.2535 68.058 49.3957 67.96 49.5381ZM443.024 48.4854C443.138 48.6386 443.251 48.7925 443.362 48.9473C443.251 48.7925 443.138 48.6386 443.024 48.4854ZM68.5146 48.749C68.648 48.564 68.7829 48.3802 68.9189 48.1973C68.7829 48.3802 68.648 48.564 68.5146 48.749ZM442.344 47.5889C442.45 47.7249 442.555 47.8618 442.659 47.999C442.555 47.8618 442.45 47.7249 442.344 47.5889ZM69.1748 47.8564C69.2952 47.6977 69.4166 47.5399 69.5391 47.3828C69.4166 47.5399 69.2952 47.6977 69.1748 47.8564ZM36.3135 44.9873C36.0694 45.5443 35.8324 46.105 35.6016 46.6689C35.8324 46.105 36.0694 45.5443 36.3135 44.9873ZM441.7 46.7822C441.81 46.9173 441.92 47.0531 442.028 47.1895C441.92 47.0531 441.81 46.9173 441.7 46.7822ZM69.8779 46.9541C69.98 46.8264 70.0822 46.6988 70.1855 46.5723C70.0822 46.6988 69.98 46.8264 69.8779 46.9541ZM441.012 45.958C441.116 46.0794 441.219 46.2017 441.321 46.3242C441.219 46.2017 441.116 46.0794 441.012 45.958ZM70.5566 46.125C70.6622 45.9991 70.7681 45.8737 70.875 45.749C70.7681 45.8737 70.6622 45.9991 70.5566 46.125ZM440.263 45.1045C440.391 45.2471 440.518 45.3909 440.645 45.5352C440.518 45.3909 440.391 45.2471 440.263 45.1045ZM71.2549 45.3115C71.362 45.1898 71.4688 45.0678 71.5771 44.9473C71.4688 45.0678 71.362 45.1898 71.2549 45.3115ZM439.527 44.3076C439.664 44.452 439.799 44.597 439.934 44.7432C439.799 44.597 439.664 44.452 439.527 44.3076ZM71.9717 44.5156C72.0833 44.3946 72.1956 44.2741 72.3086 44.1543C72.1956 44.2741 72.0833 44.3946 71.9717 44.5156ZM37.8564 41.6885C37.7215 41.9597 37.5878 42.2318 37.4561 42.5049C37.588 42.2315 37.7213 41.959 37.8564 41.6875V41.6885ZM438.79 43.5439C438.919 43.6749 439.048 43.8069 439.176 43.9395C439.048 43.8069 438.919 43.6749 438.79 43.5439ZM374.248 43.3486H374.247H374.248ZM72.6709 43.7734C72.8085 43.6308 72.9474 43.4895 73.0869 43.3486C72.9474 43.4895 72.8085 43.6308 72.6709 43.7734ZM437.982 42.7461C438.13 42.8887 438.278 43.0322 438.424 43.1768C438.278 43.0322 438.13 42.8887 437.982 42.7461ZM73.4141 43.0215C73.5458 42.8911 73.6782 42.7615 73.8115 42.6328C73.6782 42.7615 73.5458 42.8911 73.4141 43.0215ZM437.175 41.9873C437.337 42.1357 437.498 42.2848 437.657 42.4355C437.498 42.2848 437.337 42.1357 437.175 41.9873ZM74.2109 42.251C74.333 42.136 74.4558 42.0218 74.5791 41.9082C74.4558 42.0218 74.333 42.136 74.2109 42.251ZM436.387 41.2812C436.545 41.42 436.703 41.5593 436.859 41.7002C436.703 41.5593 436.545 41.42 436.387 41.2812ZM75 41.5254C75.1276 41.4107 75.2559 41.2968 75.3848 41.1836C75.2559 41.2968 75.1276 41.4107 75 41.5254ZM435.614 40.6191C435.751 40.7337 435.887 40.8488 436.022 40.9648C435.887 40.8488 435.751 40.7337 435.614 40.6191ZM75.7803 40.8398C75.9272 40.7138 76.0751 40.589 76.2236 40.4648C76.0751 40.589 75.9272 40.7138 75.7803 40.8398ZM434.756 39.917C434.898 40.0306 435.041 40.1445 435.182 40.2598C435.041 40.1445 434.898 40.0306 434.756 39.917ZM76.6074 40.1465C76.7476 40.0319 76.8887 39.9186 77.0303 39.8057C76.8887 39.9186 76.7476 40.0319 76.6074 40.1465ZM433.917 39.2646C434.053 39.3682 434.189 39.4721 434.324 39.5771C434.189 39.4721 434.053 39.3682 433.917 39.2646ZM77.4609 39.4648C77.5997 39.3569 77.7399 39.2509 77.8799 39.1445C77.7399 39.2509 77.5997 39.3569 77.4609 39.4648ZM40.4561 36.9082C40.3024 37.1679 40.1506 37.4288 40 37.6904C40.1508 37.4285 40.3022 37.1671 40.4561 36.9072V36.9082ZM432.998 38.584C433.158 38.6995 433.318 38.8151 433.477 38.9326C433.318 38.8151 433.158 38.6995 432.998 38.584ZM78.3105 38.8213C78.4668 38.7055 78.6244 38.5914 78.7822 38.4775C78.6244 38.5914 78.4668 38.7055 78.3105 38.8213ZM432.127 37.9707C432.289 38.0819 432.451 38.1934 432.611 38.3066C432.451 38.1934 432.289 38.0819 432.127 37.9707ZM79.1602 38.2061C79.3174 38.0951 79.476 37.986 79.6348 37.877C79.476 37.986 79.3174 38.0951 79.1602 38.2061ZM381.904 37.1816C381.596 37.3792 381.291 37.5804 380.988 37.7852H380.987C381.29 37.5804 381.595 37.3792 381.903 37.1816H381.904ZM431.263 37.3916C431.403 37.4833 431.543 37.5748 431.683 37.668C431.543 37.5748 431.403 37.4833 431.263 37.3916ZM80.0928 37.5664C80.2218 37.4801 80.3514 37.3946 80.4814 37.3096C80.3514 37.3946 80.2218 37.4801 80.0928 37.5664ZM430.339 36.8037C430.483 36.8933 430.628 36.983 430.771 37.0742C430.628 36.983 430.483 36.8933 430.339 36.8037ZM80.9932 36.9795C81.1209 36.8984 81.2493 36.8181 81.3779 36.7383C81.2493 36.8181 81.1209 36.8984 80.9932 36.9795ZM429.361 36.2148C429.52 36.308 429.679 36.4011 429.837 36.4961C429.679 36.4011 429.52 36.308 429.361 36.2148ZM469.577 34.1494C469.91 34.6563 470.237 35.1674 470.559 35.6826C470.398 35.425 470.236 35.1686 470.072 34.9131L469.577 34.1494ZM81.9072 36.4141C82.0592 36.3226 82.2121 36.2323 82.3652 36.1426C82.2121 36.2323 82.0592 36.3226 81.9072 36.4141ZM428.385 35.6592C428.568 35.7603 428.75 35.8613 428.932 35.9648C428.75 35.8613 428.568 35.7603 428.385 35.6592ZM82.7832 35.8994C82.9542 35.8017 83.1264 35.7059 83.2988 35.6104C83.1264 35.7059 82.9542 35.8017 82.7832 35.8994ZM427.412 35.1367C427.598 35.2338 427.784 35.3311 427.969 35.4307C427.784 35.3311 427.598 35.2338 427.412 35.1367ZM83.7793 35.3477C83.9291 35.267 84.0796 35.1874 84.2305 35.1084C84.0796 35.1874 83.9291 35.267 83.7793 35.3477ZM426.415 34.6318C426.615 34.7298 426.814 34.8279 427.012 34.9287C426.814 34.8279 426.615 34.7298 426.415 34.6318ZM84.6914 34.8691C84.8724 34.777 85.0549 34.6874 85.2373 34.5977C85.0549 34.6874 84.8724 34.777 84.6914 34.8691ZM425.513 34.2012C425.683 34.2803 425.854 34.3592 426.023 34.4404C425.854 34.3592 425.683 34.2803 425.513 34.2012ZM85.7051 34.3691C85.8406 34.3044 85.977 34.2412 86.1133 34.1777C85.977 34.2412 85.8406 34.3044 85.7051 34.3691ZM424.513 33.752C424.676 33.8229 424.84 33.893 425.002 33.9658C424.84 33.893 424.676 33.8229 424.513 33.752ZM86.6973 33.9092C86.8353 33.8473 86.9745 33.788 87.1133 33.7275C86.9745 33.788 86.8353 33.8473 86.6973 33.9092ZM423.453 33.3076C423.64 33.3831 423.826 33.4573 424.012 33.5352C423.826 33.4573 423.64 33.3831 423.453 33.3076ZM87.6836 33.4824C87.8331 33.4197 87.9835 33.359 88.1338 33.2979C87.9835 33.359 87.8331 33.4197 87.6836 33.4824ZM422.47 32.9229C422.643 32.9884 422.817 33.0535 422.989 33.1211C422.817 33.0535 422.643 32.9884 422.47 32.9229ZM88.6729 33.0801C88.87 33.0028 89.0681 32.928 89.2666 32.8535C89.0681 32.928 88.87 33.0028 88.6729 33.0801ZM421.469 32.5576C421.625 32.6125 421.782 32.6661 421.938 32.7227C421.782 32.6661 421.625 32.6125 421.469 32.5576ZM89.6562 32.708C89.8474 32.6382 90.04 32.5721 90.2324 32.5049C90.04 32.5721 89.8474 32.6382 89.6562 32.708ZM420.411 32.2002C420.573 32.2526 420.735 32.3042 420.896 32.3584C420.735 32.3042 420.573 32.2526 420.411 32.2002ZM90.7461 32.3262C90.8746 32.283 91.0038 32.2422 91.1328 32.2002C91.0038 32.2422 90.8746 32.283 90.7461 32.3262ZM419.308 31.8594C419.488 31.9125 419.668 31.9642 419.847 32.0195C419.668 31.9642 419.488 31.9125 419.308 31.8594ZM91.7861 31.9912C91.9283 31.9473 92.0712 31.9058 92.2139 31.8633C92.0712 31.9058 91.9283 31.9473 91.7861 31.9912ZM418.25 31.5605C418.431 31.6092 418.612 31.6562 418.792 31.707C418.612 31.6562 418.431 31.6092 418.25 31.5605ZM92.834 31.6816C93.0247 31.6278 93.2165 31.5777 93.4082 31.5264C93.2165 31.5777 93.0247 31.6278 92.834 31.6816ZM417.008 31.2451C417.237 31.3 417.467 31.3538 417.695 31.4121C417.467 31.3538 417.237 31.3 417.008 31.2451ZM93.876 31.4014C94.0758 31.3502 94.2767 31.3024 94.4775 31.2539C94.2767 31.3024 94.0758 31.3502 93.876 31.4014ZM415.86 30.9863C416.123 31.042 416.386 31.098 416.647 31.1582C416.386 31.098 416.123 31.042 415.86 30.9863ZM94.9512 31.1396C95.2119 31.0797 95.4739 31.0241 95.7363 30.9688C95.4739 31.0241 95.2119 31.0797 94.9512 31.1396ZM414.898 30.7939C415.115 30.8349 415.332 30.8749 415.548 30.9189C415.332 30.8749 415.115 30.8349 414.898 30.7939ZM96.002 30.9111C96.2491 30.8605 96.4975 30.8141 96.7461 30.7676C96.4975 30.8141 96.2491 30.8605 96.002 30.9111ZM413.817 30.6025C414.016 30.635 414.214 30.6661 414.411 30.7012C414.214 30.6661 414.016 30.635 413.817 30.6025ZM97.1328 30.6953C97.3557 30.6556 97.5797 30.6203 97.8037 30.584C97.5797 30.6203 97.3557 30.6557 97.1328 30.6953ZM412.706 30.4346C412.907 30.4625 413.108 30.489 413.309 30.5195C413.108 30.489 412.907 30.4625 412.706 30.4346ZM98.2236 30.5146C98.4447 30.4809 98.6666 30.4514 98.8887 30.4209C98.6666 30.4514 98.4447 30.4809 98.2236 30.5146ZM411.376 30.2695C411.641 30.2983 411.905 30.3271 412.168 30.3604C411.905 30.3271 411.641 30.2983 411.376 30.2695ZM99.3525 30.3574C99.4997 30.3388 99.6474 30.3238 99.7949 30.3066C99.6474 30.3238 99.4997 30.3388 99.3525 30.3574ZM410.126 30.1504C410.438 30.1757 410.75 30.2028 411.061 30.2344C410.75 30.2028 410.438 30.1756 410.126 30.1504ZM100.485 30.2285C100.655 30.2114 100.824 30.1978 100.994 30.1826C100.824 30.1978 100.655 30.2114 100.485 30.2285ZM50.1621 23.9307H50.1631C49.9587 24.1502 49.7555 24.3708 49.5537 24.5928C49.15 25.0369 48.7515 25.4858 48.3584 25.9395C48.9479 25.2592 49.549 24.5892 50.1621 23.9307ZM409.011 30.0752C409.311 30.0921 409.611 30.1091 409.91 30.1318C409.611 30.1091 409.311 30.0921 409.011 30.0752ZM101.588 30.1309C101.876 30.1089 102.165 30.0916 102.454 30.0752C102.165 30.0916 101.876 30.1089 101.588 30.1309ZM407.597 30.0146C407.984 30.0245 408.37 30.0391 408.755 30.0586C408.37 30.0391 407.984 30.0245 407.597 30.0146ZM465.303 28.2764V28.2773V28.2764ZM52.6777 21.3545C52.2484 21.7737 51.8245 22.1986 51.4053 22.6279C51.8245 22.1986 52.2484 21.7737 52.6777 21.3545ZM456.562 19.0879V19.0889V19.0879ZM63.1396 12.8242C63.6384 12.487 64.1413 12.1555 64.6484 11.8301C64.1413 12.1555 63.6384 12.487 63.1396 12.8242ZM84.5293 2.84961H84.5303C84.234 2.93394 83.9383 3.01954 83.6436 3.10742C83.0539 3.28322 82.4673 3.4664 81.8838 3.65625C80.4249 4.13089 78.9857 4.64966 77.5674 5.20996C76.1491 5.77024 74.7516 6.37182 73.377 7.01465C72.827 7.2718 72.2809 7.53565 71.7383 7.80566C71.1958 8.07565 70.657 8.35212 70.1221 8.63477C74.6695 6.23226 79.492 4.28352 84.5293 2.84961ZM438.365 7.09082V7.08984V7.09082ZM89.0283 1.71973H89.0293H89.0283ZM91.7773 1.17285H91.7783H91.7773ZM97.3779 0.387695H97.3789H97.3779ZM451.585 69.7627C451.625 70.0748 451.659 70.3881 451.692 70.7021C451.659 70.3881 451.625 70.0748 451.585 69.7627Z" fill="#8544FF"/>
<path d="M180.998 379.081C187.625 379.081 192.998 384.454 192.998 391.081C192.998 397.708 187.625 403.081 180.998 403.081H105.898C99.2716 403.081 93.8989 397.708 93.8984 391.081C93.8984 384.454 99.2713 379.081 105.898 379.081H180.998ZM96.8701 403.06C96.9253 403.101 96.9813 403.142 97.0371 403.183C96.9995 403.155 96.9612 403.129 96.9238 403.101L96.8701 403.06ZM94.6758 401.031C94.7978 401.169 94.9219 401.305 95.0488 401.438C94.9219 401.305 94.7978 401.169 94.6758 401.031ZM351.361 323.362C357.988 323.362 363.361 328.735 363.361 335.362V381.001C363.361 387.628 357.988 393.001 351.361 393.001H305.999C299.372 393.001 293.999 387.628 293.999 381.001C293.999 374.374 299.372 369.001 305.999 369.001H339.361V335.362C339.362 328.735 344.734 323.362 351.361 323.362ZM195.697 394.079C195.612 394.502 195.508 394.917 195.388 395.326C195.508 394.917 195.612 394.502 195.697 394.079ZM296.7 392.771C296.611 392.7 296.523 392.628 296.436 392.556C296.523 392.628 296.611 392.7 296.7 392.771ZM195.878 392.99C195.874 393.023 195.868 393.056 195.863 393.089C195.869 393.048 195.876 393.008 195.881 392.967L195.878 392.99ZM90.9561 392.394C90.9666 392.515 90.9788 392.636 90.9922 392.757C90.9788 392.636 90.9666 392.515 90.9561 392.394ZM195.979 391.852C195.968 392.052 195.953 392.25 195.936 392.448C195.954 392.248 195.968 392.048 195.979 391.846V391.852ZM295.65 391.858C295.772 391.975 295.897 392.088 296.022 392.2C295.897 392.088 295.772 391.975 295.65 391.858ZM90.9121 390.463C90.9038 390.668 90.8984 390.873 90.8984 391.08C90.8984 390.873 90.9038 390.668 90.9121 390.463ZM195.954 389.927L195.955 389.926L195.954 389.927ZM91.2529 387.829C91.1272 388.398 91.0328 388.979 90.9736 389.57C91.0327 388.979 91.1272 388.398 91.2529 387.829ZM195.21 386.27C195.367 386.734 195.503 387.209 195.614 387.692L195.693 388.058C195.643 387.814 195.587 387.572 195.525 387.332C195.495 387.212 195.462 387.093 195.429 386.975C195.395 386.856 195.36 386.738 195.323 386.62L195.21 386.27ZM365.937 384.553C365.981 384.369 366.023 384.185 366.061 383.999C366.023 384.185 365.981 384.369 365.937 384.553ZM191.856 380.731C192.601 381.513 193.263 382.374 193.827 383.302L193.826 383.303C193.764 383.2 193.7 383.097 193.635 382.996C193.505 382.793 193.37 382.594 193.23 382.397C193.161 382.299 193.09 382.202 193.018 382.105C192.73 381.721 192.424 381.35 192.102 380.995L191.856 380.731ZM93.1465 383.178C93.2196 383.06 93.2948 382.944 93.3711 382.828C93.2948 382.944 93.2196 383.06 93.1465 383.178ZM366.342 381.772C366.339 381.823 366.335 381.873 366.332 381.924C366.335 381.871 366.339 381.818 366.342 381.766V381.772ZM291.014 380.352C291.007 380.507 291.003 380.662 291.001 380.818C291.003 380.662 291.007 380.507 291.014 380.352ZM189.973 379.061C190.358 379.349 190.729 379.655 191.084 379.978C190.818 379.735 190.542 379.503 190.259 379.28L189.973 379.061ZM189.083 378.443C189.286 378.573 189.486 378.708 189.682 378.848C189.584 378.778 189.484 378.71 189.385 378.643L189.083 378.443ZM291.224 378.401C291.257 378.213 291.294 378.026 291.334 377.84C291.294 378.026 291.257 378.213 291.224 378.401ZM97.6162 378.572C97.708 378.511 97.8004 378.451 97.8936 378.393C97.8004 378.451 97.708 378.511 97.6162 378.572ZM188.464 378.068L188.465 378.067L188.464 378.068ZM185.104 376.649C185.698 376.818 186.276 377.022 186.837 377.259L187.171 377.405C186.949 377.305 186.725 377.211 186.498 377.121C186.271 377.032 186.041 376.948 185.809 376.869C185.692 376.83 185.576 376.791 185.458 376.755L185.104 376.649ZM100.134 377.229C100.237 377.186 100.34 377.143 100.444 377.103C100.34 377.143 100.237 377.186 100.134 377.229ZM102.909 376.378C102.587 376.443 102.269 376.519 101.954 376.604C102.269 376.519 102.587 376.443 102.909 376.378ZM180.998 376.08C182.163 376.08 183.297 376.213 184.386 376.464L184.747 376.553C184.268 376.429 183.779 376.329 183.282 376.253C183.034 376.215 182.783 376.184 182.531 376.158C182.279 376.133 182.025 376.113 181.77 376.1C181.514 376.087 181.257 376.081 180.998 376.081H105.898L105.512 376.086C105.297 376.091 105.084 376.101 104.872 376.115C105.211 376.092 105.553 376.08 105.898 376.08H180.998ZM103.896 376.213C103.688 376.241 103.482 376.272 103.276 376.309C103.482 376.272 103.688 376.241 103.896 376.213ZM104.584 376.138C104.412 376.153 104.24 376.171 104.069 376.191C104.24 376.171 104.412 376.153 104.584 376.138ZM295.224 370.565C295.305 370.481 295.389 370.398 295.473 370.315C295.389 370.398 295.305 370.481 295.224 370.565ZM296.857 369.107C296.757 369.185 296.658 369.263 296.56 369.343C296.658 369.263 296.757 369.185 296.857 369.107ZM300.547 367.022C300.36 367.095 300.176 367.172 299.993 367.252C300.176 367.172 300.36 367.095 300.547 367.022ZM303.997 366.133C303.809 366.158 303.622 366.187 303.436 366.219C303.622 366.187 303.809 366.158 303.997 366.133ZM304.632 366.062C304.477 366.076 304.323 366.093 304.17 366.111C304.323 366.093 304.477 366.076 304.632 366.062ZM336.361 366.001H305.999L305.612 366.006C305.407 366.011 305.202 366.02 304.999 366.033C305.33 366.011 305.663 366 305.999 366H336.361V366.001ZM184.021 345.875C183.288 346.025 182.537 346.122 181.77 346.161C182.025 346.148 182.279 346.128 182.531 346.103C182.783 346.077 183.034 346.046 183.282 346.008C183.53 345.97 183.776 345.925 184.021 345.875ZM180.998 319.181C187.625 319.181 192.998 324.554 192.998 331.181C192.998 337.808 187.625 343.181 180.998 343.181H105.948C99.3213 343.181 93.9485 337.808 93.9482 331.181C93.9482 324.554 99.3212 319.181 105.948 319.181H180.998ZM103.293 345.946C103.539 345.99 103.788 346.028 104.038 346.06C103.788 346.028 103.539 345.99 103.293 345.946ZM185.458 345.506H185.459H185.458ZM190.539 342.755H190.54H190.539ZM95.0908 341.529C95.2429 341.689 95.3988 341.844 95.5576 341.997C95.3988 341.844 95.2428 341.689 95.0908 341.529ZM193.018 340.155C192.802 340.444 192.576 340.724 192.341 340.996H192.34C192.418 340.905 192.496 340.814 192.572 340.722C192.725 340.537 192.874 340.348 193.018 340.155ZM93.9287 340.155V340.154V340.155ZM195.323 335.641H195.324H195.323ZM195.954 332.334H195.955H195.954ZM365.523 330.408C365.699 330.911 365.849 331.426 365.972 331.952C365.917 331.718 365.857 331.486 365.792 331.256C365.758 331.137 365.723 331.019 365.687 330.901C365.635 330.736 365.581 330.571 365.523 330.408ZM365.036 329.189C365.136 329.411 365.231 329.635 365.32 329.862C365.231 329.635 365.136 329.41 365.036 329.188V329.189ZM195.525 327.432H195.526H195.525ZM361.319 324.146C361.631 324.423 361.932 324.711 362.22 325.013C361.932 324.711 361.631 324.423 361.319 324.146ZM193.826 323.402H193.827H193.826ZM192.572 321.639C192.725 321.824 192.874 322.013 193.018 322.205C192.874 322.013 192.725 321.824 192.572 321.639ZM358.022 321.92C358.116 321.966 358.209 322.012 358.301 322.061C358.209 322.012 358.116 321.966 358.022 321.92ZM95.3418 320.574C95.3237 320.592 95.3061 320.611 95.2881 320.629C95.3906 320.525 95.4941 320.423 95.5996 320.322L95.3418 320.574ZM352.863 320.437C353 320.45 353.136 320.465 353.271 320.482C353.136 320.465 353 320.45 352.863 320.437ZM190.539 319.605H190.54H190.539ZM181.77 316.199C182.537 316.238 183.289 316.335 184.021 316.485C183.777 316.435 183.531 316.391 183.282 316.353C183.034 316.315 182.783 316.283 182.531 316.258C182.279 316.232 182.025 316.212 181.77 316.199ZM104.038 316.301C103.788 316.333 103.539 316.37 103.293 316.414C103.539 316.37 103.788 316.333 104.038 316.301ZM180.998 259.081C187.625 259.081 192.998 264.454 192.998 271.081C192.998 277.708 187.625 283.081 180.998 283.081H105.998C99.3714 283.081 93.9985 277.708 93.998 271.081C93.998 264.454 99.3711 259.081 105.998 259.081H180.998ZM96.6992 282.851C96.6108 282.781 96.5233 282.71 96.4365 282.638C96.5233 282.71 96.6108 282.781 96.6992 282.851ZM95.6494 281.938C95.7593 282.043 95.8714 282.146 95.9844 282.247C95.8714 282.146 95.7593 282.043 95.6494 281.938ZM195.697 274.079C195.606 274.528 195.495 274.97 195.364 275.403C195.495 274.97 195.606 274.528 195.697 274.079ZM195.979 271.852C195.967 272.075 195.95 272.296 195.929 272.517C195.95 272.294 195.967 272.071 195.979 271.846V271.852ZM195.954 269.927L195.955 269.926L195.954 269.927ZM91.2227 268.481C91.255 268.296 91.2909 268.112 91.3301 267.929C91.2909 268.112 91.2551 268.296 91.2227 268.481ZM195.21 266.27C195.367 266.734 195.503 267.209 195.614 267.692L195.693 268.058C195.643 267.814 195.587 267.572 195.525 267.332C195.495 267.212 195.462 267.093 195.429 266.975C195.395 266.856 195.36 266.738 195.323 266.62L195.21 266.27ZM191.856 260.731C192.601 261.513 193.263 262.374 193.827 263.302L193.826 263.303C193.764 263.2 193.7 263.097 193.635 262.996C193.505 262.793 193.37 262.594 193.23 262.397C193.161 262.299 193.09 262.202 193.018 262.105C192.73 261.721 192.424 261.35 192.102 260.995L191.856 260.731ZM93.2461 263.178C93.3061 263.081 93.3676 262.986 93.4297 262.891C93.3676 262.986 93.3061 263.081 93.2461 263.178ZM189.973 259.061C190.358 259.349 190.729 259.655 191.084 259.978C190.818 259.735 190.542 259.503 190.259 259.28L189.973 259.061ZM96.8564 259.188C96.7561 259.265 96.6569 259.343 96.5586 259.423C96.6569 259.343 96.7561 259.265 96.8564 259.188ZM189.083 258.443C189.286 258.573 189.486 258.708 189.682 258.848C189.584 258.778 189.484 258.71 189.385 258.643L189.083 258.443ZM188.464 258.068L188.465 258.067L188.464 258.068ZM185.104 256.649C185.698 256.818 186.276 257.022 186.837 257.259L187.171 257.405C186.949 257.305 186.725 257.211 186.498 257.121C186.271 257.032 186.041 256.948 185.809 256.869C185.692 256.83 185.576 256.791 185.458 256.755L185.104 256.649ZM100.546 257.103C100.359 257.175 100.175 257.252 99.9922 257.332C100.175 257.252 100.359 257.175 100.546 257.103ZM180.998 256.08C182.163 256.08 183.297 256.213 184.386 256.464L184.747 256.553C184.268 256.429 183.779 256.329 183.282 256.253C183.034 256.215 182.783 256.184 182.531 256.158C182.279 256.133 182.025 256.113 181.77 256.1C181.514 256.087 181.257 256.081 180.998 256.081H105.998L105.611 256.086C105.406 256.091 105.201 256.1 104.998 256.113C105.329 256.092 105.662 256.08 105.998 256.08H180.998ZM102.655 256.454C102.773 256.427 102.89 256.402 103.009 256.378C102.89 256.402 102.773 256.427 102.655 256.454ZM103.996 256.213C103.788 256.241 103.581 256.272 103.376 256.309C103.581 256.272 103.788 256.241 103.996 256.213ZM104.631 256.143C104.476 256.157 104.322 256.173 104.169 256.191C104.322 256.173 104.476 256.157 104.631 256.143ZM196.395 227.117C195.89 227.168 195.379 227.195 194.861 227.195C195.12 227.195 195.377 227.189 195.633 227.176C195.888 227.163 196.142 227.143 196.395 227.117ZM191.474 226.812V226.811V226.812ZM197.884 226.89L197.885 226.891L197.884 226.89ZM199.672 226.406C199.556 226.445 199.44 226.484 199.322 226.521L198.968 226.626C199.205 226.559 199.44 226.485 199.672 226.406ZM189.022 226.017V226.016V226.017ZM204.402 223.77C204.31 223.846 204.217 223.922 204.122 223.996L203.836 224.215C203.932 224.143 204.028 224.069 204.122 223.995L204.402 223.77ZM194.861 63.7207C201.488 63.7207 206.861 69.0945 206.861 75.7217V79.2334L209.052 79.8477C215.06 81.5309 220.53 84.3919 224.788 88.3193C229.659 92.8119 229.967 100.403 225.474 105.275C220.981 110.146 213.388 110.455 208.517 105.961C206.091 103.724 202.01 102.53 198.312 102.192C194.592 101.853 190.188 102.278 187.073 104.373C184.902 105.833 183.327 108.007 182.519 110.263C181.728 112.47 181.533 115.194 182.823 117.524C184.287 120.167 186.854 122.03 189.58 123.516C192.339 125.019 195.701 126.36 199.157 127.731C206.217 130.532 214.079 133.622 220.861 138.907C234.198 149.3 238.169 163.651 235.406 176.621C232.625 189.677 222.998 201.409 208.88 206.3L206.861 206.999V212.195C206.861 218.822 201.488 224.195 194.861 224.195C188.234 224.195 182.862 218.822 182.861 212.195V207.862L180.49 207.354C172.826 205.712 165.725 202.768 160.236 199.177H160.235C154.69 195.549 153.135 188.112 156.763 182.565C160.389 177.021 167.828 175.466 173.374 179.094V179.093C177.558 181.83 182.982 183.623 188.132 184.368C193.203 185.102 198.552 184.896 202.42 183.076C207.578 180.65 211.574 175.571 212.183 170.12L212.234 169.546C212.624 163.674 208.783 159.572 204.67 156.807C201.475 154.659 197.617 152.97 194.202 151.594L190.976 150.316C180.492 146.175 168.607 141.388 161.829 129.153C152.246 111.85 160.748 88.328 180.914 80.7715L182.861 80.042V75.7217C182.861 69.0946 188.234 63.7208 194.861 63.7207ZM185.601 223.996V223.995V223.996ZM204.947 223.298V223.299V223.298ZM206.662 221.455C206.514 221.644 206.36 221.829 206.203 222.011C206.36 221.829 206.514 221.644 206.662 221.455ZM182.033 219.973C182.284 220.385 182.554 220.784 182.842 221.169C182.914 221.265 182.986 221.361 183.061 221.455C183.209 221.644 183.362 221.829 183.52 222.011C182.969 221.376 182.472 220.694 182.033 219.973ZM209.292 216.301C209.258 216.419 209.224 216.538 209.188 216.655L209.073 217.006C209.152 216.773 209.225 216.538 209.292 216.301ZM178.847 210.061C178.995 210.095 179.143 210.128 179.291 210.161C179.143 210.128 178.995 210.095 178.847 210.061ZM161.978 203.717C162.276 203.881 162.577 204.044 162.882 204.204C162.577 204.044 162.276 203.881 161.978 203.717ZM155.546 199.05C156.257 199.857 157.066 200.598 157.968 201.255C157.066 200.598 156.257 199.857 155.546 199.05ZM154.853 198.202C154.935 198.311 155.02 198.419 155.105 198.526C155.02 198.419 154.935 198.311 154.853 198.202ZM154.222 197.305C154.292 197.414 154.365 197.522 154.438 197.63C154.365 197.522 154.292 197.414 154.222 197.305ZM153.674 196.39C153.626 196.303 153.579 196.215 153.533 196.127C153.579 196.215 153.626 196.303 153.674 196.39ZM151.923 191.011C151.909 190.901 151.896 190.792 151.885 190.682C151.896 190.791 151.909 190.901 151.923 191.011ZM235.347 186.198C234.871 187.224 234.353 188.233 233.796 189.223C234.242 188.431 234.662 187.627 235.056 186.812L235.347 186.198ZM152.205 185.676C152.231 185.566 152.259 185.456 152.287 185.347C152.259 185.456 152.231 185.566 152.205 185.676ZM236.157 184.334L236.158 184.333L236.157 184.334ZM152.867 183.583C152.91 183.475 152.955 183.367 153.001 183.26C152.955 183.367 152.91 183.475 152.867 183.583ZM236.878 182.437C236.769 182.744 236.656 183.051 236.54 183.356C236.576 183.262 236.612 183.167 236.647 183.072L236.878 182.437ZM153.155 182.908C153.309 182.571 153.477 182.238 153.658 181.909C153.477 182.238 153.309 182.571 153.155 182.908ZM193.675 181.761C193.541 181.762 193.407 181.761 193.271 181.761C193.406 181.761 193.541 181.762 193.675 181.761ZM192.872 181.757C192.71 181.754 192.547 181.749 192.383 181.743C192.547 181.749 192.71 181.754 192.872 181.757ZM194.54 181.741C194.401 181.747 194.262 181.75 194.122 181.753C194.262 181.75 194.401 181.747 194.54 181.741ZM191.991 181.729C191.848 181.722 191.705 181.713 191.561 181.704C191.705 181.713 191.848 181.722 191.991 181.729ZM195.347 181.697C195.201 181.707 195.055 181.716 194.908 181.724C195.055 181.716 195.201 181.707 195.347 181.697ZM191.101 181.675C190.955 181.664 190.809 181.651 190.663 181.639C190.809 181.651 190.955 181.664 191.101 181.675ZM196.143 181.627C196.013 181.64 195.883 181.653 195.752 181.664C195.883 181.653 196.013 181.64 196.143 181.627ZM190.243 181.602C190.084 181.586 189.925 181.569 189.765 181.551C189.925 181.569 190.084 181.586 190.243 181.602ZM196.928 181.531C196.786 181.551 196.644 181.57 196.5 181.587C196.644 181.57 196.786 181.551 196.928 181.531ZM189.348 181.503C189.187 181.483 189.027 181.461 188.866 181.439C189.027 181.461 189.187 181.483 189.348 181.503ZM197.681 181.411C197.544 181.436 197.406 181.459 197.267 181.48C197.406 181.459 197.544 181.436 197.681 181.411ZM188.457 181.383C188.276 181.356 188.095 181.326 187.913 181.297C188.095 181.326 188.276 181.356 188.457 181.383ZM198.455 181.257C198.38 181.274 198.304 181.29 198.229 181.306C198.304 181.29 198.38 181.274 198.455 181.257ZM187.579 181.242C187.366 181.206 187.153 181.166 186.94 181.126C187.153 181.166 187.366 181.206 187.579 181.242ZM199.497 180.983C199.192 181.075 198.877 181.159 198.554 181.234C198.877 181.159 199.192 181.075 199.497 180.983ZM154.469 180.603C154.396 180.708 154.324 180.816 154.253 180.924L154.124 181.126C154.167 181.058 154.209 180.99 154.253 180.923C154.324 180.815 154.396 180.707 154.469 180.602V180.603ZM186.693 181.08C186.511 181.045 186.329 181.006 186.147 180.968C186.329 181.006 186.511 181.045 186.693 181.08ZM200.096 180.787C199.934 180.844 199.77 180.9 199.603 180.952C199.77 180.9 199.934 180.844 200.096 180.787ZM185.73 180.879C185.612 180.853 185.495 180.825 185.377 180.798C185.495 180.825 185.612 180.853 185.73 180.879ZM184.829 180.669C184.706 180.639 184.583 180.606 184.46 180.574C184.583 180.606 184.706 180.639 184.829 180.669ZM201.536 180.167C201.406 180.233 201.275 180.299 201.143 180.361L200.848 180.495C200.75 180.538 200.65 180.579 200.549 180.619C200.753 180.538 200.951 180.452 201.143 180.361C201.275 180.299 201.406 180.233 201.536 180.167ZM183.955 180.442C183.791 180.398 183.627 180.35 183.464 180.304C183.627 180.35 183.791 180.398 183.955 180.442ZM183.082 180.194C182.927 180.148 182.774 180.1 182.62 180.052C182.774 180.1 182.927 180.148 183.082 180.194ZM155.156 179.683H155.157H155.156ZM182.189 179.917C182.041 179.869 181.893 179.818 181.745 179.768C181.893 179.818 182.041 179.869 182.189 179.917ZM181.332 179.628C181.164 179.569 180.998 179.507 180.832 179.445C180.998 179.507 181.164 179.569 181.332 179.628ZM202.69 179.512C202.65 179.537 202.609 179.561 202.568 179.586C202.609 179.561 202.65 179.537 202.69 179.512ZM203.066 179.265C203.004 179.307 202.941 179.349 202.877 179.391C202.941 179.349 203.004 179.307 203.066 179.265ZM180.483 179.317C180.258 179.231 180.035 179.142 179.812 179.052C180.035 179.142 180.258 179.231 180.483 179.317ZM159.363 176.107H159.364C159.049 176.287 158.739 176.479 158.436 176.683C157.525 177.294 156.675 178.011 155.902 178.83C156.932 177.738 158.101 176.827 159.363 176.107ZM203.395 179.037C203.373 179.053 203.351 179.068 203.329 179.083C203.351 179.068 203.373 179.053 203.395 179.037ZM179.648 178.986C179.444 178.902 179.241 178.814 179.04 178.727C179.241 178.814 179.444 178.902 179.648 178.986ZM203.77 178.761C203.739 178.784 203.708 178.807 203.678 178.83C203.708 178.807 203.739 178.784 203.77 178.761ZM178.823 178.633C178.587 178.528 178.353 178.42 178.121 178.31C178.353 178.42 178.587 178.528 178.823 178.633ZM204.136 178.474C204.076 178.522 204.016 178.57 203.955 178.617C204.016 178.57 204.076 178.522 204.136 178.474ZM204.452 178.209C204.417 178.239 204.381 178.269 204.346 178.299C204.381 178.269 204.417 178.239 204.452 178.209ZM178.021 178.263C177.815 178.164 177.612 178.062 177.41 177.959C177.612 178.062 177.815 178.164 178.021 178.263ZM204.773 177.924C204.73 177.964 204.686 178.003 204.642 178.042C204.686 178.003 204.73 177.964 204.773 177.924ZM176.469 177.459C176.198 177.308 175.932 177.153 175.671 176.994C175.932 177.153 176.198 177.308 176.469 177.459ZM205.105 177.613C205.059 177.658 205.012 177.703 204.965 177.747C205.012 177.703 205.059 177.658 205.105 177.613ZM205.437 177.285C205.384 177.339 205.331 177.392 205.278 177.444C205.331 177.391 205.384 177.339 205.437 177.285ZM205.713 176.992C205.664 177.045 205.616 177.097 205.566 177.148C205.616 177.097 205.664 177.045 205.713 176.992ZM206.023 176.646C205.965 176.713 205.906 176.78 205.846 176.847C205.906 176.78 205.965 176.713 206.023 176.646ZM174.69 176.375C174.8 176.443 174.909 176.511 175.017 176.582C175.037 176.595 175.057 176.608 175.077 176.621C175.057 176.608 175.037 176.596 175.017 176.583C174.908 176.512 174.8 176.443 174.69 176.375ZM206.285 176.335C206.234 176.397 206.182 176.46 206.13 176.521C206.182 176.46 206.234 176.397 206.285 176.335ZM206.544 176.012C206.506 176.06 206.468 176.108 206.43 176.156C206.468 176.108 206.506 176.06 206.544 176.012ZM206.79 175.685C206.76 175.726 206.731 175.767 206.7 175.808C206.731 175.767 206.76 175.726 206.79 175.685ZM161.321 175.172C161.097 175.26 160.876 175.354 160.656 175.452C160.876 175.354 161.097 175.26 161.321 175.172ZM207.058 175.308C207.025 175.356 206.992 175.404 206.958 175.452C206.992 175.404 207.025 175.356 207.058 175.308ZM207.31 174.926C207.268 174.991 207.225 175.056 207.183 175.121C207.225 175.056 207.268 174.991 207.31 174.926ZM171.269 174.812C171.386 174.848 171.504 174.886 171.621 174.926C171.504 174.886 171.386 174.848 171.269 174.812ZM163.384 174.531C163.15 174.586 162.918 174.646 162.688 174.712C162.918 174.646 163.15 174.586 163.384 174.531ZM207.506 174.608C207.476 174.658 207.446 174.708 207.415 174.758C207.446 174.708 207.476 174.658 207.506 174.608ZM163.735 174.453C164.44 174.306 165.155 174.209 165.875 174.164C165.635 174.179 165.396 174.2 165.157 174.227C165.038 174.24 164.919 174.254 164.8 174.271C164.562 174.303 164.325 174.34 164.089 174.384L163.735 174.453ZM207.728 174.226C207.698 174.278 207.669 174.331 207.639 174.384C207.669 174.331 207.698 174.278 207.728 174.226ZM167.334 174.143C167.57 174.151 167.806 174.164 168.042 174.184C167.806 174.164 167.57 174.151 167.334 174.143ZM207.928 173.853C207.896 173.915 207.863 173.976 207.83 174.038C207.863 173.976 207.896 173.915 207.928 173.853ZM208.116 173.473C208.084 173.541 208.052 173.61 208.018 173.678C208.052 173.61 208.084 173.541 208.116 173.473ZM239.195 170.571C239.156 171.469 239.086 172.365 238.986 173.258C239.086 172.365 239.156 171.469 239.195 170.571ZM208.254 173.176C208.239 173.21 208.223 173.244 208.208 173.277C208.223 173.244 208.239 173.21 208.254 173.176ZM208.616 172.275C208.585 172.364 208.552 172.453 208.519 172.541C208.552 172.453 208.585 172.364 208.616 172.275ZM208.75 171.875C208.72 171.969 208.691 172.064 208.658 172.157C208.691 172.064 208.72 171.969 208.75 171.875ZM208.956 171.143C208.938 171.216 208.921 171.291 208.901 171.364C208.921 171.291 208.938 171.216 208.956 171.143ZM238.996 164.491C239.071 165.167 239.129 165.843 239.168 166.519C239.129 165.843 239.071 165.167 238.996 164.491ZM238.602 161.794C238.683 162.242 238.757 162.691 238.823 163.141C238.757 162.691 238.683 162.242 238.602 161.794ZM238.331 160.45V160.449V160.45ZM235.667 152.526C236.065 153.389 236.428 154.258 236.758 155.134C236.429 154.258 236.065 153.389 235.667 152.527V152.526ZM235.044 151.24L235.045 151.239L235.044 151.24ZM229.704 143.223C230.868 144.597 231.92 146.01 232.862 147.456C232.593 147.043 232.314 146.633 232.027 146.226C231.74 145.818 231.445 145.413 231.14 145.011C230.682 144.408 230.203 143.812 229.704 143.223ZM172.391 144.644C173.065 145.093 173.746 145.524 174.433 145.938C174.09 145.731 173.748 145.52 173.407 145.305L172.391 144.644ZM170.389 143.236C170.718 143.481 171.05 143.72 171.384 143.954L171.886 144.303C171.55 144.073 171.216 143.839 170.885 143.6L170.389 143.236ZM168.44 141.705C168.92 142.104 169.406 142.491 169.896 142.865C169.569 142.616 169.244 142.361 168.922 142.101L168.44 141.705ZM226.46 139.779C227.043 140.337 227.605 140.903 228.146 141.478C227.785 141.095 227.415 140.716 227.035 140.34L226.46 139.779ZM215.014 131.533C217.643 132.975 220.238 134.618 222.705 136.54C223.151 136.888 223.588 137.24 224.015 137.596L224.647 138.133C224.23 137.773 223.803 137.417 223.367 137.065C223.149 136.889 222.928 136.715 222.705 136.541C220.911 135.143 219.049 133.892 217.155 132.76C216.919 132.618 216.682 132.478 216.444 132.34C215.969 132.064 215.492 131.795 215.014 131.533ZM164.312 137.755V137.754V137.755ZM161.645 134.454C161.857 134.749 162.072 135.039 162.29 135.324C162.072 135.039 161.857 134.749 161.645 134.454ZM161.028 133.575C161.076 133.646 161.125 133.716 161.174 133.786C160.997 133.529 160.821 133.269 160.648 133.005L161.028 133.575ZM207.123 127.736C208.541 128.345 209.978 128.99 211.418 129.686C209.978 128.99 208.541 128.345 207.123 127.736ZM190.541 120.617C190.852 120.794 191.174 120.969 191.504 121.142C191.174 120.969 190.852 120.794 190.541 120.617ZM185.034 114.997V114.998V114.997ZM215.994 112.124C216.181 112.132 216.368 112.138 216.556 112.139C216.368 112.138 216.181 112.132 215.994 112.124ZM220.667 111.594C220.467 111.649 220.267 111.699 220.065 111.746C220.267 111.699 220.467 111.649 220.667 111.594ZM185.464 110.956V110.957V110.956ZM186.266 109.415V109.416V109.415ZM207.626 109.121C207.693 109.172 207.761 109.22 207.828 109.27C207.761 109.22 207.693 109.172 207.626 109.121ZM227.141 107.863C226.989 108.012 226.834 108.156 226.678 108.297C226.837 108.153 226.995 108.006 227.149 107.854L227.141 107.863ZM187.891 107.523C187.71 107.682 187.537 107.848 187.371 108.021C187.454 107.934 187.538 107.849 187.625 107.767L187.891 107.523ZM188.747 106.862C188.647 106.93 188.549 106.999 188.452 107.07L188.166 107.291C188.353 107.14 188.547 106.997 188.747 106.862ZM189.66 106.337C189.58 106.377 189.5 106.417 189.422 106.459L189.189 106.587C189.265 106.543 189.343 106.501 189.421 106.459L189.66 106.337ZM190.156 106.11L190.157 106.111L190.156 106.11ZM191.783 105.573C191.402 105.67 191.032 105.781 190.678 105.908C190.855 105.845 191.036 105.785 191.22 105.729L191.783 105.573ZM193.569 105.238C193.364 105.265 193.161 105.295 192.96 105.328L192.363 105.439C192.559 105.399 192.758 105.362 192.959 105.328L193.569 105.238ZM194.82 105.122H194.821H194.82ZM231.398 94.3877C231.442 94.6242 231.481 94.8615 231.514 95.0996C231.481 94.8615 231.442 94.6242 231.398 94.3877ZM230.729 91.9492V91.9482V91.9492ZM230.16 90.6064C230.213 90.7162 230.264 90.8267 230.314 90.9375C230.214 90.7157 230.108 90.4959 229.996 90.2783L230.16 90.6064ZM225.935 85.3213H225.934H225.935ZM172.283 81.792C171.703 82.1709 171.135 82.5635 170.581 82.9697C171.135 82.5635 171.703 82.1709 172.283 81.792ZM174.982 80.1826V80.1836V80.1826ZM214.552 78.54V78.5391V78.54ZM179.861 77.9629V77.9619V77.9629ZM191.429 401.858C191.363 401.922 191.296 401.986 191.229 402.049C191.296 401.986 191.363 401.922 191.429 401.858ZM194.548 397.521C194.506 397.61 194.463 397.698 194.419 397.785C194.463 397.698 194.506 397.61 194.548 397.521ZM195.098 396.209C195.068 396.291 195.036 396.373 195.005 396.455C195.036 396.373 195.068 396.291 195.098 396.209ZM195.335 395.501C195.303 395.605 195.27 395.708 195.235 395.812C195.27 395.708 195.303 395.605 195.335 395.501ZM195.768 393.709C195.749 393.812 195.729 393.915 195.709 394.018C195.729 393.915 195.749 393.812 195.768 393.709ZM297.145 393.107C297.089 393.067 297.033 393.026 296.978 392.984C297.033 393.026 297.089 393.067 297.145 393.107ZM296.914 392.936C296.842 392.881 296.771 392.826 296.7 392.771C296.771 392.826 296.842 392.881 296.914 392.936ZM90.9209 391.899C90.9268 392.008 90.9332 392.117 90.9414 392.226C90.9332 392.117 90.9268 392.008 90.9209 391.899ZM364.763 387.744C364.713 387.843 364.661 387.94 364.609 388.037C364.661 387.94 364.713 387.843 364.763 387.744ZM365.461 386.129C365.431 386.211 365.4 386.293 365.368 386.375C365.4 386.293 365.431 386.211 365.461 386.129ZM91.6689 386.321C91.6501 386.378 91.6325 386.435 91.6143 386.491C91.6325 386.435 91.6501 386.378 91.6689 386.321ZM365.697 385.425C365.666 385.527 365.632 385.628 365.599 385.729C365.632 385.628 365.666 385.527 365.697 385.425ZM91.9219 385.623C91.9497 385.552 91.9789 385.481 92.0078 385.41C91.9789 385.481 91.9497 385.552 91.9219 385.623ZM366.131 383.629C366.113 383.732 366.093 383.835 366.072 383.938C366.093 383.835 366.113 383.732 366.131 383.629ZM93.0312 383.366C93.0692 383.303 93.1076 383.24 93.1465 383.178C93.1076 383.24 93.0692 383.303 93.0312 383.366ZM291.167 378.75C291.185 378.633 291.203 378.517 291.224 378.401C291.203 378.517 291.185 378.633 291.167 378.75ZM97.4053 378.716C97.4753 378.668 97.5453 378.619 97.6162 378.572C97.5453 378.619 97.4753 378.668 97.4053 378.716ZM99.8809 377.336C99.9647 377.299 100.049 377.264 100.134 377.229C100.049 377.264 99.9647 377.299 99.8809 377.336ZM102.968 376.367C103.07 376.347 103.173 376.327 103.276 376.309C103.173 376.327 103.07 376.347 102.968 376.367ZM295.092 370.704C295.136 370.658 295.179 370.611 295.224 370.565C295.179 370.611 295.136 370.658 295.092 370.704ZM296.376 369.494C296.437 369.443 296.498 369.393 296.56 369.343C296.498 369.393 296.437 369.443 296.376 369.494ZM97.1436 283.188C97.0878 283.147 97.0318 283.106 96.9766 283.064C97.0318 283.106 97.0878 283.147 97.1436 283.188ZM96.9131 283.016C96.8415 282.961 96.7698 282.906 96.6992 282.851C96.7698 282.906 96.8415 282.961 96.9131 283.016ZM191.429 281.858C191.363 281.922 191.296 281.986 191.229 282.049C191.296 281.986 191.363 281.922 191.429 281.858ZM194.548 277.521C194.506 277.61 194.463 277.698 194.419 277.785C194.463 277.698 194.506 277.61 194.548 277.521ZM195.098 276.209C195.068 276.291 195.036 276.373 195.005 276.455C195.036 276.373 195.068 276.291 195.098 276.209ZM195.335 275.501C195.303 275.605 195.27 275.708 195.235 275.812C195.27 275.708 195.303 275.605 195.335 275.501ZM195.768 273.709C195.749 273.812 195.729 273.915 195.709 274.018C195.729 273.915 195.749 273.812 195.768 273.709ZM91.166 268.83C91.1836 268.713 91.2024 268.597 91.2227 268.481C91.2024 268.597 91.1836 268.713 91.166 268.83ZM91.7686 266.321C91.7497 266.378 91.7321 266.435 91.7139 266.491C91.7321 266.435 91.7497 266.378 91.7686 266.321ZM93.1309 263.366C93.1688 263.303 93.2073 263.24 93.2461 263.178C93.2073 263.24 93.1688 263.303 93.1309 263.366ZM96.375 259.574C96.4358 259.523 96.497 259.473 96.5586 259.423C96.497 259.473 96.4358 259.523 96.375 259.574ZM102.35 256.527C102.451 256.502 102.553 256.477 102.655 256.454C102.553 256.477 102.451 256.502 102.35 256.527ZM103.067 256.367C103.17 256.347 103.273 256.327 103.376 256.309C103.273 256.327 103.17 256.347 103.067 256.367ZM154.595 197.854C154.542 197.779 154.49 197.705 154.438 197.63C154.49 197.705 154.542 197.779 154.595 197.854ZM153.816 196.643C153.768 196.559 153.721 196.474 153.674 196.39C153.721 196.474 153.768 196.559 153.816 196.643ZM153.465 195.997C153.427 195.923 153.39 195.849 153.354 195.774C153.39 195.849 153.427 195.923 153.465 195.997ZM153.015 195.039C152.982 194.962 152.95 194.884 152.918 194.807C152.95 194.884 152.982 194.962 153.015 195.039ZM152.227 192.664C152.207 192.584 152.189 192.505 152.171 192.425C152.189 192.505 152.207 192.584 152.227 192.664ZM152.009 191.594C151.997 191.521 151.985 191.448 151.974 191.375C151.985 191.448 151.997 191.521 152.009 191.594ZM151.967 191.332C151.951 191.225 151.936 191.118 151.923 191.011C151.936 191.118 151.951 191.225 151.967 191.332ZM151.845 188.026C151.85 187.956 151.855 187.885 151.861 187.814C151.855 187.885 151.85 187.956 151.845 188.026ZM152.167 185.847C152.18 185.79 152.192 185.733 152.205 185.676C152.192 185.733 152.18 185.79 152.167 185.847ZM152.82 183.705C152.836 183.664 152.851 183.624 152.867 183.583C152.851 183.624 152.836 183.664 152.82 183.705ZM153.723 181.798C153.702 181.835 153.679 181.872 153.658 181.909C153.679 181.872 153.702 181.835 153.723 181.798ZM153.084 183.072C153.108 183.018 153.13 182.962 153.155 182.908C153.13 182.962 153.108 183.018 153.084 183.072ZM177.225 177.866C176.991 177.745 176.761 177.62 176.534 177.494C176.761 177.62 176.991 177.745 177.225 177.866ZM208.854 171.529C208.832 171.61 208.809 171.691 208.784 171.771C208.809 171.691 208.832 171.61 208.854 171.529ZM209.071 170.63C209.049 170.746 209.024 170.862 208.997 170.978C209.024 170.862 209.049 170.746 209.071 170.63ZM224.234 110.085C224.146 110.136 224.058 110.188 223.97 110.237C224.058 110.188 224.146 110.137 224.234 110.085Z" fill="#8544FF"/>
</svg>
