<svg width="512" height="512" viewBox="0 0 512 512" fill="none" xmlns="http://www.w3.org/2000/svg">
<path d="M288 160C293.867 160 298.667 155.2 298.667 149.333C298.667 143.467 293.867 138.667 288 138.667H266.667V128C266.667 122.133 261.867 117.333 256 117.333C250.134 117.333 245.334 122.133 245.334 128V138.667H234.667C222.934 138.667 213.334 148.267 213.334 160V181.333C213.334 193.067 222.934 202.667 234.667 202.667H277.334V224H224C218.134 224 213.334 228.8 213.334 234.667C213.334 240.533 218.134 245.333 224 245.333H245.334V256C245.334 261.867 250.134 266.667 256 266.667C261.867 266.667 266.667 261.867 266.667 256V245.333H277.334C289.067 245.333 298.667 235.733 298.667 224V202.667C298.667 190.933 289.067 181.333 277.334 181.333H234.667V160H288ZM192.214 298.667C186.347 298.667 181.547 303.467 181.547 309.334C181.547 315.2 186.347 320 192.214 320C198.08 320 202.88 315.2 202.88 309.334C202.88 303.467 198.08 298.667 192.214 298.667ZM318.507 309.334C318.507 303.467 313.707 298.667 307.84 298.667H234.667C228.8 298.667 224 303.467 224 309.334C224 315.2 228.8 320 234.667 320H307.84C313.707 320 318.507 315.2 318.507 309.334ZM192.214 352C186.347 352 181.547 356.8 181.547 362.667C181.547 368.534 186.347 373.334 192.214 373.334C198.08 373.334 202.88 368.534 202.88 362.667C202.88 356.8 198.08 352 192.214 352ZM279.467 373.334C285.334 373.334 290.134 368.534 290.134 362.667C290.134 356.8 285.334 352 279.467 352H234.667C228.8 352 224 356.8 224 362.667C224 368.534 228.8 373.334 234.667 373.334H279.467Z" fill="#8544FF"/>
<path d="M280.107 417.813L255.787 434.987L229.867 417.707C226.24 415.36 221.654 415.36 218.027 417.707L191.893 435.094L165.76 417.707C162.133 415.36 157.547 415.36 153.92 417.707L138.453 427.947V96.0002C138.453 88.2135 136.213 80.9602 132.48 74.6668H351.787C363.52 74.6668 373.12 84.2668 373.12 96.0002V277.334C373.12 283.2 377.92 288 383.787 288C389.654 288 394.454 283.2 394.454 277.334V96.0002C394.454 72.4268 375.36 53.3335 351.787 53.3335H96.0002C72.4268 53.3335 53.3335 72.4268 53.3335 96.0002V330.667C53.3335 342.4 62.9335 352 74.6668 352H117.333V448C117.333 451.947 119.467 455.574 122.987 457.387C126.4 459.2 130.667 458.987 133.974 456.854L160.107 439.467L186.24 456.854C189.867 459.2 194.453 459.2 198.08 456.854L224.214 439.467L250.347 456.854C252.16 458.027 254.187 458.667 256.214 458.667C258.24 458.667 260.587 458.027 262.4 456.747L292.694 435.307C297.494 431.894 298.667 425.28 295.254 420.48C291.84 415.68 285.227 414.507 280.427 417.92L280.107 417.813ZM74.6668 96.0002C74.6668 84.2668 84.2668 74.6668 96.0002 74.6668C107.733 74.6668 117.333 84.2668 117.333 96.0002V330.667H74.6668V96.0002Z" fill="#8544FF"/>
<path d="M384 309.333C342.827 309.333 309.333 342.827 309.333 384C309.333 425.173 342.827 458.667 384 458.667C425.173 458.667 458.667 425.173 458.667 384C458.667 342.827 425.173 309.333 384 309.333ZM384 437.333C354.56 437.333 330.667 413.44 330.667 384C330.667 354.56 354.56 330.667 384 330.667C413.44 330.667 437.333 354.56 437.333 384C437.333 413.44 413.44 437.333 384 437.333Z" fill="#8544FF"/>
<path d="M410.134 353.174C408.882 352.541 407.517 352.163 406.118 352.062C404.719 351.961 403.313 352.139 401.984 352.586C400.654 353.032 399.426 353.738 398.372 354.663C397.317 355.588 396.457 356.714 395.84 357.974L381.12 387.414L370.24 376.534C368.246 374.539 365.541 373.419 362.72 373.419C359.9 373.419 357.195 374.539 355.2 376.534C353.206 378.528 352.085 381.233 352.085 384.054C352.085 386.874 353.206 389.579 355.2 391.574L376.534 412.907C378.56 414.934 381.227 416 384.107 416C384.64 416 385.28 416 385.814 415.894C389.227 415.36 392.107 413.227 393.6 410.134L414.934 367.467C415.566 366.215 415.944 364.85 416.045 363.451C416.146 362.052 415.968 360.647 415.522 359.317C415.075 357.987 414.369 356.759 413.444 355.705C412.519 354.65 411.394 353.79 410.134 353.174Z" fill="#8544FF"/>
</svg>