<svg width="512" height="512" viewBox="0 0 512 512" fill="none" xmlns="http://www.w3.org/2000/svg">
<path d="M320 42.6665H192C110.934 42.6665 42.667 110.933 42.667 192V320C42.667 403.2 110.934 469.333 192 469.333H320C403.2 469.333 469.334 401.067 469.334 320V192C469.334 110.933 401.067 42.6665 320 42.6665ZM437.334 320C437.334 386.133 384 437.333 320 437.333H192C128 437.333 74.667 384 74.667 320V192C74.667 128 128 74.6665 192 74.6665H320C384 74.6665 437.334 128 437.334 192V320Z" fill="#8544FF"/>
<path d="M241.067 204.8C241.067 179.2 219.734 160 194.134 160C168.534 160 149.334 179.2 149.334 204.8C149.334 230.4 170.667 249.6 196.267 249.6C221.867 249.6 241.067 228.267 241.067 204.8ZM181.334 204.8C181.334 198.4 187.734 192 196.267 192C204.801 192 211.201 198.4 211.201 204.8C211.201 211.2 204.801 217.6 196.267 217.6C187.734 217.6 181.334 211.2 181.334 204.8ZM315.734 262.4C290.134 262.4 268.801 281.6 268.801 307.2C268.801 332.8 290.134 352 315.734 352C341.334 352 362.667 332.8 362.667 307.2C362.667 281.6 341.334 262.4 315.734 262.4ZM315.734 320C307.201 320 300.801 313.6 300.801 307.2C300.801 300.8 307.201 294.4 315.734 294.4C324.267 294.4 330.667 300.8 330.667 307.2C330.667 313.6 324.267 320 315.734 320ZM341.334 153.6C332.801 149.333 324.267 149.333 317.867 155.733L172.801 334.933C166.401 341.333 168.534 352 174.934 358.4C177.067 360.533 181.334 362.667 185.601 362.667C189.867 362.667 194.134 360.533 198.401 356.267L343.467 177.067C347.734 170.667 347.734 160 341.334 153.6Z" fill="#8544FF"/>
</svg>
