<svg width="512" height="512" viewBox="0 0 512 512" fill="none" xmlns="http://www.w3.org/2000/svg">
<g clip-path="url(#clip0_679_15391)">
<path d="M258.28 240.82C258.01 240.97 257.75 241.11 257.49 241.25C257.77 241.11 258.05 240.96 258.32 240.81L258.28 240.82Z" fill="#8544FF"/>
<path d="M258.32 240.81C258.05 240.96 257.77 241.11 257.49 241.25C257.75 241.11 258.01 240.97 258.28 240.82L258.32 240.81Z" fill="#8544FF"/>
<path d="M195.45 181.97L183.28 182.9L179.6 134.4L57.9205 287.06C54.6935 291 48.3805 289.45 46.9405 288.3C43.5705 285.61 43.0105 280.69 45.7005 277.32L167.36 124.67L119.27 131.89L117.47 119.82L189.88 108.97L195.45 181.97Z" fill="#8544FF"/>
<mask id="path-4-outside-1_679_15391" maskUnits="userSpaceOnUse" x="21.0303" y="-0.839844" width="470" height="514" fill="black">
<rect fill="white" x="21.0303" y="-0.839844" width="470" height="514"/>
<path d="M364.69 2.16016C432.67 2.16024 487.97 57.46 487.971 125.43C487.971 169.8 464.41 208.76 429.15 230.47H431.75C448.26 230.47 461.7 243.91 461.7 260.43V283.11C461.7 299.63 448.26 313.061 431.75 313.061H383.681C385.081 316.52 385.86 320.3 385.86 324.25V346.93C385.86 363.45 372.42 376.891 355.9 376.891H283.771C286.77 381.55 288.52 387.1 288.521 393.05V415.72C288.527 419.679 287.741 423.599 286.21 427.25H343.86C360.37 427.25 373.81 440.69 373.811 457.21V479.88C373.811 496.4 360.37 509.84 343.86 509.84H135.17C118.65 509.84 105.21 496.4 105.21 479.88V457.21C105.209 453.252 105.995 449.332 107.521 445.68H53.9902C37.4703 445.68 24.0303 432.24 24.0303 415.72V393.05C24.0305 376.53 37.4704 363.09 53.9902 363.09H125.141C122.141 358.42 120.391 352.88 120.391 346.93V324.25C120.391 307.73 133.82 294.3 150.34 294.3H214.19C212.791 290.84 212.011 287.06 212.011 283.11V260.43C212.011 243.91 225.451 230.47 241.971 230.47H300.24C264.98 208.76 241.42 169.8 241.42 125.43C241.42 57.4599 296.721 2.16016 364.69 2.16016ZM261.92 445.49C260.82 445.61 259.7 445.68 258.561 445.68H133.11C127.62 446.66 123.45 451.45 123.45 457.21V479.88C123.45 486.35 128.71 491.61 135.17 491.61H343.86C350.32 491.61 355.58 486.35 355.58 479.88V457.21C355.58 450.74 350.32 445.49 343.86 445.49H261.92ZM53.9902 381.32C47.5304 381.32 42.2707 386.58 42.2705 393.05V415.72C42.2705 422.19 47.5303 427.44 53.9902 427.44H131.811C132.91 427.32 134.03 427.25 135.17 427.25H260.63C266.11 426.27 270.29 421.48 270.29 415.72V393.05C270.29 386.58 265.03 381.32 258.561 381.32H53.9902ZM150.34 312.53C143.88 312.531 138.62 317.79 138.62 324.25V346.93C138.62 353.39 143.88 358.65 150.34 358.65H355.9C362.36 358.65 367.62 353.39 367.62 346.93V324.25C367.62 319.01 364.16 314.561 359.4 313.061H241.971C240.051 313.061 238.18 312.88 236.36 312.53H150.34ZM241.971 248.71C235.511 248.71 230.25 253.97 230.25 260.43V283.11C230.25 288.35 233.711 292.8 238.471 294.3H355.9C357.82 294.3 359.691 294.48 361.511 294.83H431.75C438.21 294.83 443.471 289.57 443.471 283.11V260.43C443.47 253.97 438.21 248.71 431.75 248.71H241.971ZM367 49.5996C364.533 49.5996 362.168 50.5801 360.424 52.3242C358.68 54.0683 357.7 56.434 357.7 58.9004V60.2207C341.704 64.3871 329.8 78.8018 329.8 96.0996C329.8 116.615 346.484 133.3 367 133.3C370.679 133.3 374.275 134.391 377.334 136.435C380.393 138.478 382.777 141.384 384.185 144.782C385.592 148.181 385.96 151.92 385.242 155.528C384.525 159.136 382.753 162.451 380.152 165.052C377.551 167.653 374.237 169.425 370.629 170.143C367.021 170.86 363.281 170.492 359.882 169.084C356.483 167.676 353.579 165.292 351.535 162.233C349.491 159.175 348.4 155.579 348.4 151.9C348.4 149.434 347.42 147.068 345.676 145.324C343.932 143.58 341.566 142.6 339.1 142.6C336.633 142.6 334.267 143.58 332.523 145.324C330.78 147.068 329.8 149.434 329.8 151.9C329.8 169.18 341.704 183.613 357.7 187.779V189.1C357.7 191.566 358.68 193.932 360.424 195.676C362.168 197.42 364.533 198.4 367 198.4C369.467 198.4 371.832 197.42 373.576 195.676C375.32 193.932 376.3 191.566 376.3 189.1V187.779C392.296 183.613 404.2 169.198 404.2 151.9C404.2 131.705 388.033 115.222 367.959 114.712L366.521 114.694C356.475 114.439 348.4 106.188 348.4 96.0996C348.615 91.3107 350.667 86.7887 354.132 83.4756C357.597 80.1624 362.206 78.3135 367 78.3135C371.794 78.3135 376.403 80.1624 379.868 83.4756C383.333 86.7887 385.385 91.3107 385.6 96.0996C385.6 98.5661 386.58 100.932 388.324 102.676C390.068 104.42 392.434 105.4 394.9 105.4C397.367 105.4 399.733 104.42 401.477 102.676C403.22 100.932 404.2 98.5659 404.2 96.0996C404.2 78.8204 392.296 64.3871 376.3 60.2207V58.9004C376.3 56.434 375.32 54.0683 373.576 52.3242C371.832 50.5801 369.467 49.5996 367 49.5996Z"/>
</mask>
<path d="M364.69 2.16016C432.67 2.16024 487.97 57.46 487.971 125.43C487.971 169.8 464.41 208.76 429.15 230.47H431.75C448.26 230.47 461.7 243.91 461.7 260.43V283.11C461.7 299.63 448.26 313.061 431.75 313.061H383.681C385.081 316.52 385.86 320.3 385.86 324.25V346.93C385.86 363.45 372.42 376.891 355.9 376.891H283.771C286.77 381.55 288.52 387.1 288.521 393.05V415.72C288.527 419.679 287.741 423.599 286.21 427.25H343.86C360.37 427.25 373.81 440.69 373.811 457.21V479.88C373.811 496.4 360.37 509.84 343.86 509.84H135.17C118.65 509.84 105.21 496.4 105.21 479.88V457.21C105.209 453.252 105.995 449.332 107.521 445.68H53.9902C37.4703 445.68 24.0303 432.24 24.0303 415.72V393.05C24.0305 376.53 37.4704 363.09 53.9902 363.09H125.141C122.141 358.42 120.391 352.88 120.391 346.93V324.25C120.391 307.73 133.82 294.3 150.34 294.3H214.19C212.791 290.84 212.011 287.06 212.011 283.11V260.43C212.011 243.91 225.451 230.47 241.971 230.47H300.24C264.98 208.76 241.42 169.8 241.42 125.43C241.42 57.4599 296.721 2.16016 364.69 2.16016ZM261.92 445.49C260.82 445.61 259.7 445.68 258.561 445.68H133.11C127.62 446.66 123.45 451.45 123.45 457.21V479.88C123.45 486.35 128.71 491.61 135.17 491.61H343.86C350.32 491.61 355.58 486.35 355.58 479.88V457.21C355.58 450.74 350.32 445.49 343.86 445.49H261.92ZM53.9902 381.32C47.5304 381.32 42.2707 386.58 42.2705 393.05V415.72C42.2705 422.19 47.5303 427.44 53.9902 427.44H131.811C132.91 427.32 134.03 427.25 135.17 427.25H260.63C266.11 426.27 270.29 421.48 270.29 415.72V393.05C270.29 386.58 265.03 381.32 258.561 381.32H53.9902ZM150.34 312.53C143.88 312.531 138.62 317.79 138.62 324.25V346.93C138.62 353.39 143.88 358.65 150.34 358.65H355.9C362.36 358.65 367.62 353.39 367.62 346.93V324.25C367.62 319.01 364.16 314.561 359.4 313.061H241.971C240.051 313.061 238.18 312.88 236.36 312.53H150.34ZM241.971 248.71C235.511 248.71 230.25 253.97 230.25 260.43V283.11C230.25 288.35 233.711 292.8 238.471 294.3H355.9C357.82 294.3 359.691 294.48 361.511 294.83H431.75C438.21 294.83 443.471 289.57 443.471 283.11V260.43C443.47 253.97 438.21 248.71 431.75 248.71H241.971ZM367 49.5996C364.533 49.5996 362.168 50.5801 360.424 52.3242C358.68 54.0683 357.7 56.434 357.7 58.9004V60.2207C341.704 64.3871 329.8 78.8018 329.8 96.0996C329.8 116.615 346.484 133.3 367 133.3C370.679 133.3 374.275 134.391 377.334 136.435C380.393 138.478 382.777 141.384 384.185 144.782C385.592 148.181 385.96 151.92 385.242 155.528C384.525 159.136 382.753 162.451 380.152 165.052C377.551 167.653 374.237 169.425 370.629 170.143C367.021 170.86 363.281 170.492 359.882 169.084C356.483 167.676 353.579 165.292 351.535 162.233C349.491 159.175 348.4 155.579 348.4 151.9C348.4 149.434 347.42 147.068 345.676 145.324C343.932 143.58 341.566 142.6 339.1 142.6C336.633 142.6 334.267 143.58 332.523 145.324C330.78 147.068 329.8 149.434 329.8 151.9C329.8 169.18 341.704 183.613 357.7 187.779V189.1C357.7 191.566 358.68 193.932 360.424 195.676C362.168 197.42 364.533 198.4 367 198.4C369.467 198.4 371.832 197.42 373.576 195.676C375.32 193.932 376.3 191.566 376.3 189.1V187.779C392.296 183.613 404.2 169.198 404.2 151.9C404.2 131.705 388.033 115.222 367.959 114.712L366.521 114.694C356.475 114.439 348.4 106.188 348.4 96.0996C348.615 91.3107 350.667 86.7887 354.132 83.4756C357.597 80.1624 362.206 78.3135 367 78.3135C371.794 78.3135 376.403 80.1624 379.868 83.4756C383.333 86.7887 385.385 91.3107 385.6 96.0996C385.6 98.5661 386.58 100.932 388.324 102.676C390.068 104.42 392.434 105.4 394.9 105.4C397.367 105.4 399.733 104.42 401.477 102.676C403.22 100.932 404.2 98.5659 404.2 96.0996C404.2 78.8204 392.296 64.3871 376.3 60.2207V58.9004C376.3 56.434 375.32 54.0683 373.576 52.3242C371.832 50.5801 369.467 49.5996 367 49.5996Z" fill="#8544FF"/>
<path d="M364.69 2.16016L364.69 -0.839844H364.69V2.16016ZM487.971 125.43L490.971 125.43L490.971 125.43L487.971 125.43ZM429.15 230.47L427.577 227.915L418.556 233.47H429.15V230.47ZM461.7 260.43L464.7 260.43L464.7 260.43L461.7 260.43ZM461.7 283.11L464.7 283.11V283.11H461.7ZM383.681 313.061V310.061H379.231L380.9 314.186L383.681 313.061ZM385.86 324.25L388.86 324.25L388.86 324.25L385.86 324.25ZM355.9 376.891L355.9 379.891L355.9 379.891L355.9 376.891ZM283.771 376.891V373.891H278.271L281.248 378.514L283.771 376.891ZM288.521 393.05L291.521 393.05L291.521 393.05L288.521 393.05ZM288.521 415.72H285.521L285.521 415.724L288.521 415.72ZM286.21 427.25L283.443 426.09L281.699 430.25H286.21V427.25ZM343.86 427.25L343.86 424.25H343.86V427.25ZM373.811 457.21L376.811 457.21L376.811 457.21L373.811 457.21ZM343.86 509.84L343.86 512.84L343.86 512.84L343.86 509.84ZM135.17 509.84L135.17 512.84H135.17V509.84ZM105.21 457.21L108.21 457.21L108.21 457.209L105.21 457.21ZM107.521 445.68L110.289 446.836L112.025 442.68H107.521V445.68ZM53.9902 445.68L53.9902 448.68H53.9902V445.68ZM24.0303 393.05L21.0303 393.05V393.05H24.0303ZM53.9902 363.09L53.9902 360.09L53.9902 360.09L53.9902 363.09ZM125.141 363.09V366.09H130.633L127.665 361.468L125.141 363.09ZM120.391 324.25L117.391 324.25V324.25H120.391ZM150.34 294.3L150.34 291.3L150.34 291.3L150.34 294.3ZM214.19 294.3V297.3H218.641L216.971 293.175L214.19 294.3ZM212.011 283.11L209.011 283.11L209.011 283.11L212.011 283.11ZM212.011 260.43L209.011 260.43V260.43H212.011ZM300.24 230.47V233.47H310.835L301.813 227.915L300.24 230.47ZM241.42 125.43L238.42 125.43V125.43H241.42ZM261.92 445.49V442.49H261.757L261.595 442.508L261.92 445.49ZM258.561 445.68L258.561 448.68L258.561 448.68L258.561 445.68ZM133.11 445.68V442.68H132.845L132.583 442.726L133.11 445.68ZM123.45 457.21L120.45 457.21V457.21H123.45ZM135.17 491.61L135.17 494.61H135.17V491.61ZM343.86 491.61L343.86 494.61L343.86 494.61L343.86 491.61ZM355.58 457.21L358.58 457.21L358.58 457.21L355.58 457.21ZM343.86 445.49L343.86 442.49H343.86V445.49ZM53.9902 381.32L53.9902 378.32L53.9902 378.32L53.9902 381.32ZM42.2705 393.05L39.2705 393.05V393.05H42.2705ZM53.9902 427.44L53.9902 430.44H53.9902V427.44ZM131.811 427.44V430.44H131.974L132.136 430.423L131.811 427.44ZM135.17 427.25L135.17 424.25L135.17 424.25L135.17 427.25ZM260.63 427.25V430.25H260.896L261.158 430.203L260.63 427.25ZM270.29 393.05L273.29 393.05L273.29 393.05L270.29 393.05ZM258.561 381.32L258.561 378.32H258.561V381.32ZM150.34 312.53L150.34 309.53L150.34 309.53L150.34 312.53ZM138.62 324.25L135.62 324.25V324.25H138.62ZM150.34 358.65L150.34 361.65H150.34V358.65ZM355.9 358.65L355.9 361.65L355.9 361.65L355.9 358.65ZM367.62 324.25L370.62 324.25L370.62 324.25L367.62 324.25ZM359.4 313.061L360.302 310.199L359.862 310.061H359.4V313.061ZM236.36 312.53L236.927 309.584L236.646 309.53H236.36V312.53ZM230.25 260.43L227.25 260.43V260.43H230.25ZM230.25 283.11L227.25 283.11L227.25 283.11L230.25 283.11ZM238.471 294.3L237.569 297.161L238.009 297.3H238.471V294.3ZM355.9 294.3L355.9 291.3H355.9V294.3ZM361.511 294.83L360.944 297.776L361.225 297.83H361.511V294.83ZM443.471 283.11L446.471 283.11V283.11H443.471ZM443.471 260.43L446.471 260.43L446.471 260.43L443.471 260.43ZM367 49.5996L367 46.5996L367 46.5996L367 49.5996ZM360.424 52.3242L358.303 50.2029L358.302 50.203L360.424 52.3242ZM357.7 60.2207L358.456 63.1238L360.7 62.5394V60.2207H357.7ZM329.8 96.0996L326.8 96.0996V96.0996H329.8ZM367 133.3L367 136.3H367V133.3ZM377.334 136.435L379.001 133.94L379.001 133.94L377.334 136.435ZM384.185 144.782L386.956 143.634L386.956 143.634L384.185 144.782ZM385.242 155.528L388.185 156.114L388.185 156.114L385.242 155.528ZM380.152 165.052L382.274 167.173L382.274 167.173L380.152 165.052ZM370.629 170.143L371.214 173.085L371.214 173.085L370.629 170.143ZM359.882 169.084L358.734 171.856L358.734 171.856L359.882 169.084ZM351.535 162.233L349.041 163.9L349.041 163.9L351.535 162.233ZM348.4 151.9L345.4 151.9L345.4 151.9L348.4 151.9ZM345.676 145.324L347.797 143.203L347.797 143.203L345.676 145.324ZM339.1 142.6L339.1 139.6L339.099 139.6L339.1 142.6ZM332.523 145.324L330.402 143.203L330.402 143.203L332.523 145.324ZM329.8 151.9L326.8 151.9L326.8 151.9L329.8 151.9ZM357.7 187.779H360.7V185.461L358.456 184.876L357.7 187.779ZM360.424 195.676L358.302 197.797L358.303 197.797L360.424 195.676ZM367 198.4L367 201.4H367V198.4ZM373.576 195.676L375.697 197.797L375.698 197.797L373.576 195.676ZM376.3 187.779L375.544 184.876L373.3 185.461V187.779H376.3ZM404.2 151.9L407.2 151.9V151.9H404.2ZM367.959 114.712L368.035 111.713L368.015 111.712L367.996 111.712L367.959 114.712ZM366.521 114.694L366.444 117.693L366.464 117.694L366.484 117.694L366.521 114.694ZM348.4 96.0996L345.403 95.9655L345.4 96.0325V96.0996H348.4ZM354.132 83.4756L352.058 81.3074L352.058 81.3074L354.132 83.4756ZM367 78.3135L367 75.3135L367 75.3135L367 78.3135ZM379.868 83.4756L381.942 81.3074L381.942 81.3074L379.868 83.4756ZM385.6 96.0996H388.6V96.0325L388.597 95.9655L385.6 96.0996ZM388.324 102.676L386.203 104.797L386.203 104.797L388.324 102.676ZM394.9 105.4L394.9 108.4L394.901 108.4L394.9 105.4ZM401.477 102.676L403.598 104.797L403.598 104.797L401.477 102.676ZM404.2 96.0996L407.2 96.0996L407.2 96.0996L404.2 96.0996ZM376.3 60.2207H373.3V62.5394L375.544 63.1238L376.3 60.2207ZM373.576 52.3242L375.698 50.203L375.697 50.2029L373.576 52.3242ZM364.69 2.16016L364.69 5.16016C431.014 5.16024 484.97 59.117 484.971 125.43L487.971 125.43L490.971 125.43C490.97 55.8029 434.327 -0.839759 364.69 -0.839844L364.69 2.16016ZM487.971 125.43H484.971C484.971 168.712 461.991 206.726 427.577 227.915L429.15 230.47L430.723 233.024C466.83 210.793 490.971 170.887 490.971 125.43H487.971ZM429.15 230.47V233.47H431.75V230.47V227.47H429.15V230.47ZM431.75 230.47V233.47C446.602 233.47 458.7 245.566 458.7 260.43L461.7 260.43L464.7 260.43C464.7 242.254 449.917 227.47 431.75 227.47V230.47ZM461.7 260.43H458.7V283.11H461.7H464.7V260.43H461.7ZM461.7 283.11L458.7 283.11C458.7 297.973 446.604 310.061 431.75 310.061V313.061V316.061C449.916 316.061 464.7 301.288 464.7 283.11L461.7 283.11ZM431.75 313.061V310.061H383.681V313.061V316.061H431.75V313.061ZM383.681 313.061L380.9 314.186C382.159 317.299 382.86 320.698 382.86 324.25L385.86 324.25L388.86 324.25C388.86 319.903 388.002 315.741 386.462 311.935L383.681 313.061ZM385.86 324.25H382.86V346.93H385.86H388.86V324.25H385.86ZM385.86 346.93H382.86C382.86 361.793 370.763 373.891 355.9 373.891L355.9 376.891L355.9 379.891C374.077 379.891 388.86 365.106 388.86 346.93H385.86ZM355.9 376.891V373.891H283.771V376.891V379.891H355.9V376.891ZM283.771 376.891L281.248 378.514C283.947 382.708 285.52 387.696 285.521 393.05L288.521 393.05L291.521 393.05C291.52 386.504 289.593 380.393 286.293 375.267L283.771 376.891ZM288.521 393.05H285.521V415.72H288.521H291.521V393.05H288.521ZM288.521 415.72L285.521 415.724C285.526 419.283 284.82 422.808 283.443 426.09L286.21 427.25L288.977 428.41C290.662 424.39 291.527 420.074 291.521 415.715L288.521 415.72ZM286.21 427.25V430.25H343.86V427.25V424.25H286.21V427.25ZM343.86 427.25L343.86 430.25C358.713 430.25 370.81 442.346 370.811 457.21L373.811 457.21L376.811 457.21C376.81 439.034 362.028 424.25 343.86 424.25L343.86 427.25ZM373.811 457.21H370.811V479.88H373.811H376.811V457.21H373.811ZM373.811 479.88H370.811C370.811 494.744 358.713 506.84 343.86 506.84L343.86 509.84L343.86 512.84C362.028 512.84 376.811 498.056 376.811 479.88H373.811ZM343.86 509.84V506.84H135.17V509.84V512.84H343.86V509.84ZM135.17 509.84L135.17 506.84C120.307 506.84 108.21 494.743 108.21 479.88H105.21H102.21C102.21 498.057 116.993 512.84 135.17 512.84L135.17 509.84ZM105.21 479.88H108.21V457.21H105.21H102.21V479.88H105.21ZM105.21 457.21L108.21 457.209C108.209 453.648 108.916 450.122 110.289 446.836L107.521 445.68L104.752 444.523C103.073 448.542 102.209 452.855 102.21 457.211L105.21 457.21ZM107.521 445.68V442.68H53.9902V445.68V448.68H107.521V445.68ZM53.9902 445.68L53.9902 442.68C39.1271 442.68 27.0303 430.583 27.0303 415.72H24.0303H21.0303C21.0303 433.897 35.8134 448.68 53.9902 448.68L53.9902 445.68ZM24.0303 415.72H27.0303V393.05H24.0303H21.0303V415.72H24.0303ZM24.0303 393.05L27.0303 393.05C27.0304 378.187 39.1272 366.09 53.9902 366.09L53.9902 363.09L53.9902 360.09C35.8135 360.09 21.0305 374.873 21.0303 393.05L24.0303 393.05ZM53.9902 363.09V366.09H125.141V363.09V360.09H53.9902V363.09ZM125.141 363.09L127.665 361.468C124.963 357.263 123.391 352.282 123.391 346.93H120.391H117.391C117.391 353.477 119.318 359.577 122.617 364.711L125.141 363.09ZM120.391 346.93H123.391V324.25H120.391H117.391V346.93H120.391ZM120.391 324.25L123.391 324.25C123.391 309.387 135.477 297.3 150.34 297.3L150.34 294.3L150.34 291.3C132.163 291.3 117.391 306.073 117.391 324.25L120.391 324.25ZM150.34 294.3V297.3H214.19V294.3V291.3H150.34V294.3ZM214.19 294.3L216.971 293.175C215.712 290.061 215.011 286.663 215.011 283.11L212.011 283.11L209.011 283.11C209.011 287.458 209.869 291.619 211.409 295.425L214.19 294.3ZM212.011 283.11H215.011V260.43H212.011H209.011V283.11H212.011ZM212.011 260.43L215.011 260.43C215.011 245.567 227.108 233.47 241.971 233.47V230.47V227.47C223.794 227.47 209.011 242.253 209.011 260.43L212.011 260.43ZM241.971 230.47V233.47H300.24V230.47V227.47H241.971V230.47ZM300.24 230.47L301.813 227.915C267.4 206.726 244.42 168.712 244.42 125.43H241.42H238.42C238.42 170.887 262.561 210.793 298.667 233.024L300.24 230.47ZM241.42 125.43L244.42 125.43C244.42 59.1168 298.377 5.16016 364.69 5.16016V2.16016V-0.839844C295.064 -0.839844 238.42 55.803 238.42 125.43L241.42 125.43ZM261.92 445.49L261.595 442.508C260.589 442.618 259.578 442.68 258.561 442.68L258.561 445.68L258.561 448.68C259.822 448.68 261.051 448.603 262.245 448.473L261.92 445.49ZM258.561 445.68V442.68H133.11V445.68V448.68H258.561V445.68ZM133.11 445.68L132.583 442.726C125.693 443.956 120.45 449.966 120.45 457.21L123.45 457.21L126.45 457.21C126.45 452.934 129.548 449.363 133.638 448.633L133.11 445.68ZM123.45 457.21H120.45V479.88H123.45H126.45V457.21H123.45ZM123.45 479.88H120.45C120.45 488.005 127.051 494.61 135.17 494.61L135.17 491.61L135.17 488.61C130.369 488.61 126.45 484.695 126.45 479.88H123.45ZM135.17 491.61V494.61H343.86V491.61V488.61H135.17V491.61ZM343.86 491.61L343.86 494.61C351.979 494.61 358.58 488.005 358.58 479.88H355.58H352.58C352.58 484.695 348.662 488.61 343.86 488.61L343.86 491.61ZM355.58 479.88H358.58V457.21H355.58H352.58V479.88H355.58ZM355.58 457.21L358.58 457.21C358.58 449.082 351.975 442.49 343.86 442.49L343.86 445.49L343.86 448.49C348.665 448.49 352.58 452.399 352.58 457.21L355.58 457.21ZM343.86 445.49V442.49H261.92V445.49V448.49H343.86V445.49ZM53.9902 381.32L53.9902 378.32C45.8718 378.32 39.2707 384.925 39.2705 393.05L42.2705 393.05L45.2705 393.05C45.2706 388.235 49.1889 384.32 53.9902 384.32L53.9902 381.32ZM42.2705 393.05H39.2705V415.72H42.2705H45.2705V393.05H42.2705ZM42.2705 415.72H39.2705C39.2705 423.848 45.8747 430.44 53.9902 430.44L53.9902 427.44L53.9902 424.44C49.1858 424.44 45.2705 420.532 45.2705 415.72H42.2705ZM53.9902 427.44V430.44H131.811V427.44V424.44H53.9902V427.44ZM131.811 427.44L132.136 430.423C133.143 430.313 134.154 430.25 135.17 430.25L135.17 427.25L135.17 424.25C133.907 424.25 132.677 424.328 131.485 424.458L131.811 427.44ZM135.17 427.25V430.25H260.63V427.25V424.25H135.17V427.25ZM260.63 427.25L261.158 430.203C268.035 428.973 273.29 422.966 273.29 415.72H270.29H267.29C267.29 419.993 264.184 423.567 260.102 424.297L260.63 427.25ZM270.29 415.72H273.29V393.05H270.29H267.29V415.72H270.29ZM270.29 393.05L273.29 393.05C273.29 384.923 266.687 378.32 258.561 378.32L258.561 381.32L258.56 384.32C263.373 384.32 267.29 388.237 267.29 393.05L270.29 393.05ZM258.561 381.32V378.32H53.9902V381.32V384.32H258.561V381.32ZM150.34 312.53L150.34 309.53C142.223 309.531 135.62 316.133 135.62 324.25L138.62 324.25L141.62 324.25C141.62 319.447 145.537 315.53 150.34 315.53L150.34 312.53ZM138.62 324.25H135.62V346.93H138.62H141.62V324.25H138.62ZM138.62 346.93H135.62C135.62 355.046 142.223 361.65 150.34 361.65L150.34 358.65L150.34 355.65C145.537 355.65 141.62 351.733 141.62 346.93H138.62ZM150.34 358.65V361.65H355.9V358.65V355.65H150.34V358.65ZM355.9 358.65L355.9 361.65C364.017 361.65 370.62 355.046 370.62 346.93H367.62H364.62C364.62 351.733 360.703 355.65 355.9 355.65L355.9 358.65ZM367.62 346.93H370.62V324.25H367.62H364.62V346.93H367.62ZM367.62 324.25L370.62 324.25C370.62 317.658 366.269 312.08 360.302 310.199L359.4 313.061L358.499 315.922C362.051 317.041 364.62 320.363 364.62 324.25L367.62 324.25ZM359.4 313.061V310.061H241.971V313.061V316.061H359.4V313.061ZM241.971 313.061V310.061C240.24 310.061 238.559 309.898 236.927 309.584L236.36 312.53L235.794 315.476C237.802 315.862 239.862 316.061 241.971 316.061V313.061ZM236.36 312.53V309.53H150.34V312.53V315.53H236.36V312.53ZM241.971 248.71V245.71C233.854 245.71 227.25 252.313 227.25 260.43L230.25 260.43L233.25 260.43C233.25 255.627 237.167 251.71 241.971 251.71V248.71ZM230.25 260.43H227.25V283.11H230.25H233.25V260.43H230.25ZM230.25 283.11L227.25 283.11C227.25 289.703 231.602 295.281 237.569 297.161L238.471 294.3L239.372 291.439C235.82 290.319 233.25 286.997 233.25 283.11L230.25 283.11ZM238.471 294.3V297.3H355.9V294.3V291.3H238.471V294.3ZM355.9 294.3L355.9 297.3C357.631 297.3 359.312 297.462 360.944 297.776L361.511 294.83L362.077 291.884C360.069 291.498 358.009 291.3 355.9 291.3L355.9 294.3ZM361.511 294.83V297.83H431.75V294.83V291.83H361.511V294.83ZM431.75 294.83V297.83C439.867 297.83 446.471 291.227 446.471 283.11L443.471 283.11L440.471 283.11C440.471 287.913 436.553 291.83 431.75 291.83V294.83ZM443.471 283.11H446.471V260.43H443.471H440.471V283.11H443.471ZM443.471 260.43L446.471 260.43C446.47 252.313 439.866 245.71 431.75 245.71V248.71V251.71C436.553 251.71 440.471 255.627 440.471 260.43L443.471 260.43ZM431.75 248.71V245.71H241.971V248.71V251.71H431.75V248.71ZM367 49.5996L367 46.5996C363.737 46.5996 360.609 47.8966 358.303 50.2029L360.424 52.3242L362.545 54.4455C363.727 53.2637 365.33 52.5996 367 52.5996L367 49.5996ZM360.424 52.3242L358.302 50.203C355.996 52.5097 354.7 55.6385 354.7 58.9004H357.7H360.7C360.7 57.2294 361.364 55.6268 362.545 54.4455L360.424 52.3242ZM357.7 58.9004H354.7V60.2207H357.7H360.7V58.9004H357.7ZM357.7 60.2207L356.944 57.3176C339.683 61.8134 326.8 77.3784 326.8 96.0996L329.8 96.0996L332.8 96.0996C332.8 80.2251 343.725 66.9608 358.456 63.1238L357.7 60.2207ZM329.8 96.0996H326.8C326.8 118.272 344.827 136.3 367 136.3L367 133.3L367 130.3C348.141 130.3 332.8 114.959 332.8 96.0996H329.8ZM367 133.3V136.3C370.085 136.3 373.102 137.215 375.667 138.929L377.334 136.435L379.001 133.94C375.449 131.567 371.272 130.3 367 130.3V133.3ZM377.334 136.435L375.667 138.929C378.233 140.643 380.232 143.08 381.413 145.93L384.185 144.782L386.956 143.634C385.321 139.687 382.553 136.314 379.001 133.94L377.334 136.435ZM384.185 144.782L381.413 145.93C382.593 148.78 382.902 151.917 382.3 154.943L385.242 155.528L388.185 156.114C389.018 151.924 388.591 147.581 386.956 143.634L384.185 144.782ZM385.242 155.528L382.3 154.943C381.698 157.969 380.212 160.749 378.031 162.93L380.152 165.052L382.274 167.173C385.294 164.152 387.351 160.303 388.185 156.114L385.242 155.528ZM380.152 165.052L378.031 162.93C375.849 165.112 373.069 166.598 370.044 167.2L370.629 170.143L371.214 173.085C375.404 172.251 379.253 170.194 382.274 167.173L380.152 165.052ZM370.629 170.143L370.044 167.2C367.018 167.802 363.88 167.493 361.03 166.312L359.882 169.084L358.734 171.856C362.681 173.49 367.024 173.918 371.214 173.085L370.629 170.143ZM359.882 169.084L361.03 166.312C358.18 165.132 355.744 163.132 354.03 160.567L351.535 162.233L349.041 163.9C351.414 167.452 354.787 170.221 358.734 171.856L359.882 169.084ZM351.535 162.233L354.03 160.567C352.315 158.001 351.4 154.986 351.4 151.9L348.4 151.9L345.4 151.9C345.4 156.172 346.667 160.348 349.041 163.9L351.535 162.233ZM348.4 151.9H351.4C351.4 148.638 350.103 145.509 347.797 143.203L345.676 145.324L343.554 147.446C344.736 148.627 345.4 150.23 345.4 151.9H348.4ZM345.676 145.324L347.797 143.203C345.491 140.897 342.362 139.6 339.1 139.6V142.6V145.6C340.77 145.6 342.373 146.264 343.554 147.446L345.676 145.324ZM339.1 142.6L339.099 139.6C335.837 139.6 332.708 140.897 330.402 143.203L332.523 145.324L334.645 147.446C335.826 146.264 337.429 145.6 339.1 145.6L339.1 142.6ZM332.523 145.324L330.402 143.203C328.096 145.51 326.8 148.639 326.8 151.9H329.8H332.8C332.8 150.23 333.464 148.627 334.645 147.445L332.523 145.324ZM329.8 151.9L326.8 151.9C326.8 170.602 339.682 186.186 356.944 190.682L357.7 187.779L358.456 184.876C343.726 181.039 332.8 167.757 332.8 151.9L329.8 151.9ZM357.7 187.779H354.7V189.1H357.7H360.7V187.779H357.7ZM357.7 189.1H354.7C354.7 192.361 355.996 195.49 358.302 197.797L360.424 195.676L362.545 193.555C361.364 192.373 360.7 190.771 360.7 189.1H357.7ZM360.424 195.676L358.303 197.797C360.609 200.103 363.737 201.4 367 201.4L367 198.4L367 195.4C365.33 195.4 363.727 194.736 362.545 193.554L360.424 195.676ZM367 198.4V201.4C370.263 201.4 373.391 200.103 375.697 197.797L373.576 195.676L371.455 193.554C370.273 194.736 368.67 195.4 367 195.4V198.4ZM373.576 195.676L375.698 197.797C378.004 195.49 379.3 192.361 379.3 189.1H376.3H373.3C373.3 190.771 372.636 192.373 371.455 193.555L373.576 195.676ZM376.3 189.1H379.3V187.779H376.3H373.3V189.1H376.3ZM376.3 187.779L377.056 190.682C394.317 186.187 407.2 170.622 407.2 151.9L404.2 151.9L401.2 151.9C401.2 167.775 390.275 181.039 375.544 184.876L376.3 187.779ZM404.2 151.9H407.2C407.2 130.074 389.732 112.264 368.035 111.713L367.959 114.712L367.883 117.711C386.335 118.18 401.2 133.337 401.2 151.9H404.2ZM367.959 114.712L367.996 111.712L366.557 111.695L366.521 114.694L366.484 117.694L367.922 117.712L367.959 114.712ZM366.521 114.694L366.597 111.695C358.175 111.481 351.4 104.559 351.4 96.0996H348.4H345.4C345.4 107.818 354.774 117.397 366.444 117.693L366.521 114.694ZM348.4 96.0996L351.397 96.2337C351.577 92.2161 353.299 88.4228 356.205 85.6438L354.132 83.4756L352.058 81.3074C348.035 85.1545 345.652 90.4052 345.403 95.9655L348.4 96.0996ZM354.132 83.4756L356.205 85.6438C359.112 82.8645 362.978 81.3135 367 81.3135L367 78.3135L367 75.3135C361.434 75.3135 356.082 77.4602 352.058 81.3074L354.132 83.4756ZM367 78.3135V81.3135C371.022 81.3135 374.888 82.8645 377.795 85.6438L379.868 83.4756L381.942 81.3074C377.918 77.4602 372.566 75.3135 367 75.3135V78.3135ZM379.868 83.4756L377.795 85.6438C380.701 88.4228 382.423 92.2161 382.603 96.2337L385.6 96.0996L388.597 95.9655C388.348 90.4052 385.965 85.1546 381.942 81.3074L379.868 83.4756ZM385.6 96.0996H382.6C382.6 99.3623 383.897 102.491 386.203 104.797L388.324 102.676L390.446 100.554C389.264 99.3726 388.6 97.7699 388.6 96.0996H385.6ZM388.324 102.676L386.203 104.797C388.509 107.103 391.638 108.4 394.9 108.4V105.4V102.4C393.23 102.4 391.627 101.736 390.446 100.554L388.324 102.676ZM394.9 105.4L394.901 108.4C398.163 108.4 401.292 107.103 403.598 104.797L401.477 102.676L399.355 100.554C398.174 101.736 396.571 102.4 394.9 102.4L394.9 105.4ZM401.477 102.676L403.598 104.797C405.904 102.49 407.2 99.3615 407.2 96.0996H404.2H401.2C401.2 97.7704 400.536 99.3732 399.355 100.555L401.477 102.676ZM404.2 96.0996L407.2 96.0996C407.2 77.3979 394.318 61.8136 377.056 57.3176L376.3 60.2207L375.544 63.1238C390.274 66.9605 401.2 80.2428 401.2 96.0996L404.2 96.0996ZM376.3 60.2207H379.3V58.9004H376.3H373.3V60.2207H376.3ZM376.3 58.9004H379.3C379.3 55.6385 378.004 52.5097 375.698 50.203L373.576 52.3242L371.455 54.4455C372.636 55.6268 373.3 57.2294 373.3 58.9004H376.3ZM373.576 52.3242L375.697 50.2029C373.391 47.8966 370.263 46.5996 367 46.5996V49.5996V52.5996C368.67 52.5996 370.273 53.2637 371.455 54.4455L373.576 52.3242Z" fill="#8544FF" mask="url(#path-4-outside-1_679_15391)"/>
</g>
<defs>
<clipPath id="clip0_679_15391">
<rect width="512" height="512" fill="white"/>
</clipPath>
</defs>
</svg>
