<svg width="512" height="512" viewBox="0 0 512 512" fill="none" xmlns="http://www.w3.org/2000/svg">
<mask id="path-1-outside-1_682_15424" maskUnits="userSpaceOnUse" x="4.99219" y="5.00195" width="503" height="503" fill="black">
<rect fill="white" x="4.99219" y="5.00195" width="503" height="503"/>
<path d="M423.696 307.95L333.542 360.461C329.022 363.093 324.426 364.952 319.629 366.061C321.406 363.21 322.799 359.986 323.755 356.416C328.363 339.215 318.14 321.256 300.48 315.531C300.138 315.42 299.788 315.332 299.433 315.268C273.522 310.595 247.948 301.349 227.399 293.92C220.26 291.339 213.518 288.901 207.785 287.043C184.706 279.555 163.839 288.825 146.472 298.879L79.3984 337.713L73.0744 326.539C70.2834 321.606 65.7244 318.053 60.2384 316.532C54.7544 315.011 49.0154 315.711 44.0824 318.503L18.7874 332.82C13.8534 335.612 10.2994 340.17 8.77839 345.656C7.25739 351.142 7.95839 356.88 10.7504 361.812L85.1174 493.214C87.9084 498.146 92.4674 501.7 97.9534 503.221C99.8504 503.747 101.777 504.007 103.691 504.007C107.311 504.007 110.882 503.076 114.109 501.25L139.405 486.934C144.338 484.142 147.891 479.584 149.412 474.098C150.933 468.612 150.232 462.874 147.44 457.942L139.773 444.394L155.063 435.566L270.533 466.506C277.054 468.255 283.456 469.127 289.72 469.127C302.208 469.127 314.146 465.658 325.381 458.741L488.991 357.997C503.905 348.815 508.637 325.672 498.917 309.444C494.198 301.566 474.831 278.171 423.696 307.95ZM133.994 469.824C133.814 470.492 133.502 471.117 133.078 471.664C132.654 472.211 132.126 472.668 131.524 473.009L106.228 487.325C103.743 488.734 100.451 487.823 99.0404 485.333L24.6744 353.932C24.3343 353.33 24.1171 352.666 24.0352 351.979C23.9534 351.292 24.0085 350.595 24.1974 349.93C24.3779 349.262 24.6892 348.637 25.1132 348.09C25.5372 347.543 26.0654 347.086 26.6674 346.745L51.9624 332.429C52.7436 331.986 53.6264 331.754 54.5244 331.755C55.0034 331.755 55.4874 331.82 55.9644 331.953C56.6322 332.134 57.2576 332.445 57.8045 332.869C58.3513 333.292 58.8088 333.82 59.1504 334.422L133.517 465.824C133.857 466.426 134.075 467.09 134.156 467.776C134.238 468.463 134.183 469.159 133.994 469.824ZM480.602 344.373L316.992 445.117C304.018 453.105 289.78 455.102 274.675 451.052L156.004 419.254C153.955 418.706 151.772 418.994 149.934 420.053L131.893 430.469L87.2794 351.639L154.489 312.726C169.523 304.02 185.79 296.728 202.848 302.262C208.328 304.039 214.645 306.323 221.958 308.967C242.924 316.547 268.98 325.967 296.015 330.909C305.436 334.201 310.704 343.302 308.3 352.275C305.136 364.081 295.296 365.547 287.476 364.649C274.196 361.918 261.576 358.317 248.224 354.504C241.893 352.695 235.345 350.826 228.616 349.023C224.352 347.882 219.962 350.413 218.818 354.68C218.546 355.695 218.477 356.753 218.614 357.795C218.751 358.836 219.092 359.841 219.618 360.751C220.143 361.66 220.842 362.458 221.676 363.097C222.509 363.737 223.461 364.206 224.475 364.478C231.078 366.247 237.561 368.099 243.83 369.889C257.591 373.819 270.589 377.531 284.586 380.392C284.639 380.403 284.692 380.407 284.746 380.416C284.8 380.425 284.85 380.441 284.904 380.45L296.115 382.273C312.879 384.956 327.759 382.344 341.594 374.286L431.749 321.775C457.699 306.66 477.679 305.123 485.19 317.664C490.366 326.308 488.051 339.787 480.602 344.373ZM59.3014 357.807C59.473 358.981 59.4117 360.176 59.1211 361.326C58.8305 362.476 58.3163 363.558 57.6078 364.509C56.8993 365.46 56.0104 366.262 54.9918 366.87C53.9732 367.477 52.8449 367.878 51.6714 368.05C50.4978 368.222 49.302 368.16 48.1521 367.87C47.0022 367.579 45.9208 367.065 44.9697 366.356C44.0185 365.648 43.2162 364.759 42.6086 363.74C42.001 362.722 41.6 361.594 41.4284 360.42C41.1091 358.063 41.7327 355.674 43.1639 353.774C44.595 351.874 46.7181 350.615 49.0721 350.271C51.426 349.926 53.8207 350.525 55.736 351.936C57.6512 353.347 58.9325 355.457 59.3014 357.807ZM504 61.973V46.744C504 30.895 491.105 18 475.257 18H344.878C329.029 18 316.135 30.895 316.135 46.744V61.973C316.135 70.12 319.548 77.481 325.012 82.717C319.548 87.952 316.135 95.313 316.135 103.46V118.689C316.135 119.829 316.207 120.967 316.343 122.097C274.482 131.556 243.125 169.045 243.125 213.724C243.125 265.519 285.264 307.657 337.059 307.657C371.685 307.657 401.991 288.822 418.28 260.863H475.257C491.106 260.863 504 247.969 504 232.12V216.89C504 208.743 500.587 201.382 495.123 196.147C500.587 190.912 504 183.551 504 175.404V160.175C504 152.028 500.587 144.668 495.123 139.432C500.587 134.197 504 126.836 504 118.689V103.46C504 95.313 500.587 87.953 495.123 82.717C500.587 77.481 504 70.12 504 61.973ZM337.059 291.656C294.086 291.656 259.125 256.696 259.125 213.723C259.125 170.75 294.086 135.79 337.059 135.79C380.032 135.79 414.992 170.75 414.992 213.723C414.992 256.696 380.031 291.656 337.059 291.656ZM488 216.89V232.119C488 239.145 482.283 244.862 475.257 244.862H425.679C429.203 234.859 431 224.329 430.991 213.723C430.991 210.491 430.827 207.296 430.506 204.146H475.256C482.283 204.146 488 209.863 488 216.89ZM488 160.174V175.403C488 182.429 482.283 188.146 475.257 188.146H427.451C423.034 172.556 414.683 158.603 403.544 147.431H475.257C482.283 147.432 488 153.148 488 160.174ZM488 103.459V118.688C488 125.715 482.283 131.431 475.257 131.431H382.31C368.88 124.016 353.455 119.789 337.059 119.789C335.433 119.789 333.815 119.831 332.209 119.913C332.165 119.506 332.14 119.097 332.135 118.688V103.459C332.135 96.433 337.852 90.716 344.878 90.716H475.257C482.283 90.716 488 96.433 488 103.459ZM344.878 74.716C337.852 74.716 332.135 68.999 332.135 61.972V46.744C332.135 39.717 337.852 34 344.878 34H475.257C482.283 34 488 39.717 488 46.744V61.973C488 69 482.283 74.717 475.257 74.717L344.878 74.716ZM372.417 232.874C373.308 240.213 371.329 246.923 366.695 252.28C361.805 257.933 353.996 261.86 345.058 263.324V268.101C345.058 270.223 344.216 272.258 342.715 273.758C341.215 275.258 339.18 276.101 337.058 276.101C334.937 276.101 332.902 275.258 331.402 273.758C329.901 272.258 329.058 270.223 329.058 268.101V263.196C315.401 260.592 304.899 251.494 301.728 238.773C301.226 236.718 301.558 234.548 302.652 232.737C303.746 230.926 305.512 229.622 307.565 229.111C309.618 228.599 311.79 228.922 313.605 230.007C315.421 231.093 316.733 232.854 317.253 234.904C319.73 244.839 329.973 248.121 337.988 247.949C344.996 247.782 351.513 245.373 354.592 241.813C356.262 239.882 356.878 237.655 356.532 234.802C355.949 230.006 353.07 224.136 335.839 221.308C310.724 217.183 304.86 204.126 304.364 193.898C303.676 179.748 313.486 167.911 328.772 164.443L329.056 164.38V159.344C329.056 157.222 329.899 155.187 331.4 153.687C332.9 152.187 334.935 151.344 337.056 151.344C339.178 151.344 341.213 152.187 342.713 153.687C344.214 155.187 345.056 157.222 345.056 159.344V164.309C355.108 166.385 364.744 172.642 369.731 184.52C370.553 186.476 370.564 188.678 369.761 190.642C368.959 192.606 367.409 194.171 365.453 194.993C363.497 195.814 361.294 195.825 359.33 195.022C357.366 194.22 355.801 192.67 354.979 190.714C350.791 180.742 340.579 178.173 332.311 180.046C326.286 181.413 319.978 185.566 320.344 193.121C320.47 195.72 320.806 202.624 338.43 205.518C359.192 208.927 370.626 218.13 372.417 232.874ZM168.439 84.001H183.847V182.942C183.847 185.064 184.69 187.099 186.191 188.599C187.691 190.099 189.726 190.942 191.847 190.942H224.24C226.362 190.942 228.397 190.099 229.897 188.599C231.398 187.099 232.24 185.064 232.24 182.942V84.001H247.648C249.093 84.0007 250.511 83.6092 251.751 82.8681C252.991 82.1269 254.008 81.0638 254.692 79.7916C255.377 78.5194 255.704 77.0855 255.64 75.6422C255.575 74.1988 255.121 72.7999 254.325 71.594L214.721 11.593C213.992 10.4891 213 9.58333 211.835 8.95665C210.67 8.32997 209.367 8.00195 208.044 8.00195C206.721 8.00195 205.419 8.32997 204.254 8.95665C203.088 9.58333 202.097 10.4891 201.367 11.593L161.763 71.594C160.968 72.7999 160.514 74.1987 160.449 75.6419C160.384 77.0851 160.712 78.519 161.396 79.7912C162.081 81.0634 163.097 82.1265 164.337 82.8677C165.577 83.6089 166.995 84.0005 168.439 84.001ZM208.044 30.522L232.782 68.001H224.24C222.119 68.001 220.084 68.8438 218.584 70.3441C217.083 71.8444 216.24 73.8792 216.24 76.001V174.942H199.847V76.001C199.847 73.8792 199.005 71.8444 197.504 70.3441C196.004 68.8438 193.969 68.001 191.847 68.001H183.305L208.044 30.522Z"/>
</mask>
<path d="M423.696 307.95L333.542 360.461C329.022 363.093 324.426 364.952 319.629 366.061C321.406 363.21 322.799 359.986 323.755 356.416C328.363 339.215 318.14 321.256 300.48 315.531C300.138 315.42 299.788 315.332 299.433 315.268C273.522 310.595 247.948 301.349 227.399 293.92C220.26 291.339 213.518 288.901 207.785 287.043C184.706 279.555 163.839 288.825 146.472 298.879L79.3984 337.713L73.0744 326.539C70.2834 321.606 65.7244 318.053 60.2384 316.532C54.7544 315.011 49.0154 315.711 44.0824 318.503L18.7874 332.82C13.8534 335.612 10.2994 340.17 8.77839 345.656C7.25739 351.142 7.95839 356.88 10.7504 361.812L85.1174 493.214C87.9084 498.146 92.4674 501.7 97.9534 503.221C99.8504 503.747 101.777 504.007 103.691 504.007C107.311 504.007 110.882 503.076 114.109 501.25L139.405 486.934C144.338 484.142 147.891 479.584 149.412 474.098C150.933 468.612 150.232 462.874 147.44 457.942L139.773 444.394L155.063 435.566L270.533 466.506C277.054 468.255 283.456 469.127 289.72 469.127C302.208 469.127 314.146 465.658 325.381 458.741L488.991 357.997C503.905 348.815 508.637 325.672 498.917 309.444C494.198 301.566 474.831 278.171 423.696 307.95ZM133.994 469.824C133.814 470.492 133.502 471.117 133.078 471.664C132.654 472.211 132.126 472.668 131.524 473.009L106.228 487.325C103.743 488.734 100.451 487.823 99.0404 485.333L24.6744 353.932C24.3343 353.33 24.1171 352.666 24.0352 351.979C23.9534 351.292 24.0085 350.595 24.1974 349.93C24.3779 349.262 24.6892 348.637 25.1132 348.09C25.5372 347.543 26.0654 347.086 26.6674 346.745L51.9624 332.429C52.7436 331.986 53.6264 331.754 54.5244 331.755C55.0034 331.755 55.4874 331.82 55.9644 331.953C56.6322 332.134 57.2576 332.445 57.8045 332.869C58.3513 333.292 58.8088 333.82 59.1504 334.422L133.517 465.824C133.857 466.426 134.075 467.09 134.156 467.776C134.238 468.463 134.183 469.159 133.994 469.824ZM480.602 344.373L316.992 445.117C304.018 453.105 289.78 455.102 274.675 451.052L156.004 419.254C153.955 418.706 151.772 418.994 149.934 420.053L131.893 430.469L87.2794 351.639L154.489 312.726C169.523 304.02 185.79 296.728 202.848 302.262C208.328 304.039 214.645 306.323 221.958 308.967C242.924 316.547 268.98 325.967 296.015 330.909C305.436 334.201 310.704 343.302 308.3 352.275C305.136 364.081 295.296 365.547 287.476 364.649C274.196 361.918 261.576 358.317 248.224 354.504C241.893 352.695 235.345 350.826 228.616 349.023C224.352 347.882 219.962 350.413 218.818 354.68C218.546 355.695 218.477 356.753 218.614 357.795C218.751 358.836 219.092 359.841 219.618 360.751C220.143 361.66 220.842 362.458 221.676 363.097C222.509 363.737 223.461 364.206 224.475 364.478C231.078 366.247 237.561 368.099 243.83 369.889C257.591 373.819 270.589 377.531 284.586 380.392C284.639 380.403 284.692 380.407 284.746 380.416C284.8 380.425 284.85 380.441 284.904 380.45L296.115 382.273C312.879 384.956 327.759 382.344 341.594 374.286L431.749 321.775C457.699 306.66 477.679 305.123 485.19 317.664C490.366 326.308 488.051 339.787 480.602 344.373ZM59.3014 357.807C59.473 358.981 59.4117 360.176 59.1211 361.326C58.8305 362.476 58.3163 363.558 57.6078 364.509C56.8993 365.46 56.0104 366.262 54.9918 366.87C53.9732 367.477 52.8449 367.878 51.6714 368.05C50.4978 368.222 49.302 368.16 48.1521 367.87C47.0022 367.579 45.9208 367.065 44.9697 366.356C44.0185 365.648 43.2162 364.759 42.6086 363.74C42.001 362.722 41.6 361.594 41.4284 360.42C41.1091 358.063 41.7327 355.674 43.1639 353.774C44.595 351.874 46.7181 350.615 49.0721 350.271C51.426 349.926 53.8207 350.525 55.736 351.936C57.6512 353.347 58.9325 355.457 59.3014 357.807ZM504 61.973V46.744C504 30.895 491.105 18 475.257 18H344.878C329.029 18 316.135 30.895 316.135 46.744V61.973C316.135 70.12 319.548 77.481 325.012 82.717C319.548 87.952 316.135 95.313 316.135 103.46V118.689C316.135 119.829 316.207 120.967 316.343 122.097C274.482 131.556 243.125 169.045 243.125 213.724C243.125 265.519 285.264 307.657 337.059 307.657C371.685 307.657 401.991 288.822 418.28 260.863H475.257C491.106 260.863 504 247.969 504 232.12V216.89C504 208.743 500.587 201.382 495.123 196.147C500.587 190.912 504 183.551 504 175.404V160.175C504 152.028 500.587 144.668 495.123 139.432C500.587 134.197 504 126.836 504 118.689V103.46C504 95.313 500.587 87.953 495.123 82.717C500.587 77.481 504 70.12 504 61.973ZM337.059 291.656C294.086 291.656 259.125 256.696 259.125 213.723C259.125 170.75 294.086 135.79 337.059 135.79C380.032 135.79 414.992 170.75 414.992 213.723C414.992 256.696 380.031 291.656 337.059 291.656ZM488 216.89V232.119C488 239.145 482.283 244.862 475.257 244.862H425.679C429.203 234.859 431 224.329 430.991 213.723C430.991 210.491 430.827 207.296 430.506 204.146H475.256C482.283 204.146 488 209.863 488 216.89ZM488 160.174V175.403C488 182.429 482.283 188.146 475.257 188.146H427.451C423.034 172.556 414.683 158.603 403.544 147.431H475.257C482.283 147.432 488 153.148 488 160.174ZM488 103.459V118.688C488 125.715 482.283 131.431 475.257 131.431H382.31C368.88 124.016 353.455 119.789 337.059 119.789C335.433 119.789 333.815 119.831 332.209 119.913C332.165 119.506 332.14 119.097 332.135 118.688V103.459C332.135 96.433 337.852 90.716 344.878 90.716H475.257C482.283 90.716 488 96.433 488 103.459ZM344.878 74.716C337.852 74.716 332.135 68.999 332.135 61.972V46.744C332.135 39.717 337.852 34 344.878 34H475.257C482.283 34 488 39.717 488 46.744V61.973C488 69 482.283 74.717 475.257 74.717L344.878 74.716ZM372.417 232.874C373.308 240.213 371.329 246.923 366.695 252.28C361.805 257.933 353.996 261.86 345.058 263.324V268.101C345.058 270.223 344.216 272.258 342.715 273.758C341.215 275.258 339.18 276.101 337.058 276.101C334.937 276.101 332.902 275.258 331.402 273.758C329.901 272.258 329.058 270.223 329.058 268.101V263.196C315.401 260.592 304.899 251.494 301.728 238.773C301.226 236.718 301.558 234.548 302.652 232.737C303.746 230.926 305.512 229.622 307.565 229.111C309.618 228.599 311.79 228.922 313.605 230.007C315.421 231.093 316.733 232.854 317.253 234.904C319.73 244.839 329.973 248.121 337.988 247.949C344.996 247.782 351.513 245.373 354.592 241.813C356.262 239.882 356.878 237.655 356.532 234.802C355.949 230.006 353.07 224.136 335.839 221.308C310.724 217.183 304.86 204.126 304.364 193.898C303.676 179.748 313.486 167.911 328.772 164.443L329.056 164.38V159.344C329.056 157.222 329.899 155.187 331.4 153.687C332.9 152.187 334.935 151.344 337.056 151.344C339.178 151.344 341.213 152.187 342.713 153.687C344.214 155.187 345.056 157.222 345.056 159.344V164.309C355.108 166.385 364.744 172.642 369.731 184.52C370.553 186.476 370.564 188.678 369.761 190.642C368.959 192.606 367.409 194.171 365.453 194.993C363.497 195.814 361.294 195.825 359.33 195.022C357.366 194.22 355.801 192.67 354.979 190.714C350.791 180.742 340.579 178.173 332.311 180.046C326.286 181.413 319.978 185.566 320.344 193.121C320.47 195.72 320.806 202.624 338.43 205.518C359.192 208.927 370.626 218.13 372.417 232.874ZM168.439 84.001H183.847V182.942C183.847 185.064 184.69 187.099 186.191 188.599C187.691 190.099 189.726 190.942 191.847 190.942H224.24C226.362 190.942 228.397 190.099 229.897 188.599C231.398 187.099 232.24 185.064 232.24 182.942V84.001H247.648C249.093 84.0007 250.511 83.6092 251.751 82.8681C252.991 82.1269 254.008 81.0638 254.692 79.7916C255.377 78.5194 255.704 77.0855 255.64 75.6422C255.575 74.1988 255.121 72.7999 254.325 71.594L214.721 11.593C213.992 10.4891 213 9.58333 211.835 8.95665C210.67 8.32997 209.367 8.00195 208.044 8.00195C206.721 8.00195 205.419 8.32997 204.254 8.95665C203.088 9.58333 202.097 10.4891 201.367 11.593L161.763 71.594C160.968 72.7999 160.514 74.1987 160.449 75.6419C160.384 77.0851 160.712 78.519 161.396 79.7912C162.081 81.0634 163.097 82.1265 164.337 82.8677C165.577 83.6089 166.995 84.0005 168.439 84.001ZM208.044 30.522L232.782 68.001H224.24C222.119 68.001 220.084 68.8438 218.584 70.3441C217.083 71.8444 216.24 73.8792 216.24 76.001V174.942H199.847V76.001C199.847 73.8792 199.005 71.8444 197.504 70.3441C196.004 68.8438 193.969 68.001 191.847 68.001H183.305L208.044 30.522Z" fill="#8544FF"/>
<path d="M423.696 307.95L333.542 360.461C329.022 363.093 324.426 364.952 319.629 366.061C321.406 363.21 322.799 359.986 323.755 356.416C328.363 339.215 318.14 321.256 300.48 315.531C300.138 315.42 299.788 315.332 299.433 315.268C273.522 310.595 247.948 301.349 227.399 293.92C220.26 291.339 213.518 288.901 207.785 287.043C184.706 279.555 163.839 288.825 146.472 298.879L79.3984 337.713L73.0744 326.539C70.2834 321.606 65.7244 318.053 60.2384 316.532C54.7544 315.011 49.0154 315.711 44.0824 318.503L18.7874 332.82C13.8534 335.612 10.2994 340.17 8.77839 345.656C7.25739 351.142 7.95839 356.88 10.7504 361.812L85.1174 493.214C87.9084 498.146 92.4674 501.7 97.9534 503.221C99.8504 503.747 101.777 504.007 103.691 504.007C107.311 504.007 110.882 503.076 114.109 501.25L139.405 486.934C144.338 484.142 147.891 479.584 149.412 474.098C150.933 468.612 150.232 462.874 147.44 457.942L139.773 444.394L155.063 435.566L270.533 466.506C277.054 468.255 283.456 469.127 289.72 469.127C302.208 469.127 314.146 465.658 325.381 458.741L488.991 357.997C503.905 348.815 508.637 325.672 498.917 309.444C494.198 301.566 474.831 278.171 423.696 307.95ZM133.994 469.824C133.814 470.492 133.502 471.117 133.078 471.664C132.654 472.211 132.126 472.668 131.524 473.009L106.228 487.325C103.743 488.734 100.451 487.823 99.0404 485.333L24.6744 353.932C24.3343 353.33 24.1171 352.666 24.0352 351.979C23.9534 351.292 24.0085 350.595 24.1974 349.93C24.3779 349.262 24.6892 348.637 25.1132 348.09C25.5372 347.543 26.0654 347.086 26.6674 346.745L51.9624 332.429C52.7436 331.986 53.6264 331.754 54.5244 331.755C55.0034 331.755 55.4874 331.82 55.9644 331.953C56.6322 332.134 57.2576 332.445 57.8045 332.869C58.3513 333.292 58.8088 333.82 59.1504 334.422L133.517 465.824C133.857 466.426 134.075 467.09 134.156 467.776C134.238 468.463 134.183 469.159 133.994 469.824ZM480.602 344.373L316.992 445.117C304.018 453.105 289.78 455.102 274.675 451.052L156.004 419.254C153.955 418.706 151.772 418.994 149.934 420.053L131.893 430.469L87.2794 351.639L154.489 312.726C169.523 304.02 185.79 296.728 202.848 302.262C208.328 304.039 214.645 306.323 221.958 308.967C242.924 316.547 268.98 325.967 296.015 330.909C305.436 334.201 310.704 343.302 308.3 352.275C305.136 364.081 295.296 365.547 287.476 364.649C274.196 361.918 261.576 358.317 248.224 354.504C241.893 352.695 235.345 350.826 228.616 349.023C224.352 347.882 219.962 350.413 218.818 354.68C218.546 355.695 218.477 356.753 218.614 357.795C218.751 358.836 219.092 359.841 219.618 360.751C220.143 361.66 220.842 362.458 221.676 363.097C222.509 363.737 223.461 364.206 224.475 364.478C231.078 366.247 237.561 368.099 243.83 369.889C257.591 373.819 270.589 377.531 284.586 380.392C284.639 380.403 284.692 380.407 284.746 380.416C284.8 380.425 284.85 380.441 284.904 380.45L296.115 382.273C312.879 384.956 327.759 382.344 341.594 374.286L431.749 321.775C457.699 306.66 477.679 305.123 485.19 317.664C490.366 326.308 488.051 339.787 480.602 344.373ZM59.3014 357.807C59.473 358.981 59.4117 360.176 59.1211 361.326C58.8305 362.476 58.3163 363.558 57.6078 364.509C56.8993 365.46 56.0104 366.262 54.9918 366.87C53.9732 367.477 52.8449 367.878 51.6714 368.05C50.4978 368.222 49.302 368.16 48.1521 367.87C47.0022 367.579 45.9208 367.065 44.9697 366.356C44.0185 365.648 43.2162 364.759 42.6086 363.74C42.001 362.722 41.6 361.594 41.4284 360.42C41.1091 358.063 41.7327 355.674 43.1639 353.774C44.595 351.874 46.7181 350.615 49.0721 350.271C51.426 349.926 53.8207 350.525 55.736 351.936C57.6512 353.347 58.9325 355.457 59.3014 357.807ZM504 61.973V46.744C504 30.895 491.105 18 475.257 18H344.878C329.029 18 316.135 30.895 316.135 46.744V61.973C316.135 70.12 319.548 77.481 325.012 82.717C319.548 87.952 316.135 95.313 316.135 103.46V118.689C316.135 119.829 316.207 120.967 316.343 122.097C274.482 131.556 243.125 169.045 243.125 213.724C243.125 265.519 285.264 307.657 337.059 307.657C371.685 307.657 401.991 288.822 418.28 260.863H475.257C491.106 260.863 504 247.969 504 232.12V216.89C504 208.743 500.587 201.382 495.123 196.147C500.587 190.912 504 183.551 504 175.404V160.175C504 152.028 500.587 144.668 495.123 139.432C500.587 134.197 504 126.836 504 118.689V103.46C504 95.313 500.587 87.953 495.123 82.717C500.587 77.481 504 70.12 504 61.973ZM337.059 291.656C294.086 291.656 259.125 256.696 259.125 213.723C259.125 170.75 294.086 135.79 337.059 135.79C380.032 135.79 414.992 170.75 414.992 213.723C414.992 256.696 380.031 291.656 337.059 291.656ZM488 216.89V232.119C488 239.145 482.283 244.862 475.257 244.862H425.679C429.203 234.859 431 224.329 430.991 213.723C430.991 210.491 430.827 207.296 430.506 204.146H475.256C482.283 204.146 488 209.863 488 216.89ZM488 160.174V175.403C488 182.429 482.283 188.146 475.257 188.146H427.451C423.034 172.556 414.683 158.603 403.544 147.431H475.257C482.283 147.432 488 153.148 488 160.174ZM488 103.459V118.688C488 125.715 482.283 131.431 475.257 131.431H382.31C368.88 124.016 353.455 119.789 337.059 119.789C335.433 119.789 333.815 119.831 332.209 119.913C332.165 119.506 332.14 119.097 332.135 118.688V103.459C332.135 96.433 337.852 90.716 344.878 90.716H475.257C482.283 90.716 488 96.433 488 103.459ZM344.878 74.716C337.852 74.716 332.135 68.999 332.135 61.972V46.744C332.135 39.717 337.852 34 344.878 34H475.257C482.283 34 488 39.717 488 46.744V61.973C488 69 482.283 74.717 475.257 74.717L344.878 74.716ZM372.417 232.874C373.308 240.213 371.329 246.923 366.695 252.28C361.805 257.933 353.996 261.86 345.058 263.324V268.101C345.058 270.223 344.216 272.258 342.715 273.758C341.215 275.258 339.18 276.101 337.058 276.101C334.937 276.101 332.902 275.258 331.402 273.758C329.901 272.258 329.058 270.223 329.058 268.101V263.196C315.401 260.592 304.899 251.494 301.728 238.773C301.226 236.718 301.558 234.548 302.652 232.737C303.746 230.926 305.512 229.622 307.565 229.111C309.618 228.599 311.79 228.922 313.605 230.007C315.421 231.093 316.733 232.854 317.253 234.904C319.73 244.839 329.973 248.121 337.988 247.949C344.996 247.782 351.513 245.373 354.592 241.813C356.262 239.882 356.878 237.655 356.532 234.802C355.949 230.006 353.07 224.136 335.839 221.308C310.724 217.183 304.86 204.126 304.364 193.898C303.676 179.748 313.486 167.911 328.772 164.443L329.056 164.38V159.344C329.056 157.222 329.899 155.187 331.4 153.687C332.9 152.187 334.935 151.344 337.056 151.344C339.178 151.344 341.213 152.187 342.713 153.687C344.214 155.187 345.056 157.222 345.056 159.344V164.309C355.108 166.385 364.744 172.642 369.731 184.52C370.553 186.476 370.564 188.678 369.761 190.642C368.959 192.606 367.409 194.171 365.453 194.993C363.497 195.814 361.294 195.825 359.33 195.022C357.366 194.22 355.801 192.67 354.979 190.714C350.791 180.742 340.579 178.173 332.311 180.046C326.286 181.413 319.978 185.566 320.344 193.121C320.47 195.72 320.806 202.624 338.43 205.518C359.192 208.927 370.626 218.13 372.417 232.874ZM168.439 84.001H183.847V182.942C183.847 185.064 184.69 187.099 186.191 188.599C187.691 190.099 189.726 190.942 191.847 190.942H224.24C226.362 190.942 228.397 190.099 229.897 188.599C231.398 187.099 232.24 185.064 232.24 182.942V84.001H247.648C249.093 84.0007 250.511 83.6092 251.751 82.8681C252.991 82.1269 254.008 81.0638 254.692 79.7916C255.377 78.5194 255.704 77.0855 255.64 75.6422C255.575 74.1988 255.121 72.7999 254.325 71.594L214.721 11.593C213.992 10.4891 213 9.58333 211.835 8.95665C210.67 8.32997 209.367 8.00195 208.044 8.00195C206.721 8.00195 205.419 8.32997 204.254 8.95665C203.088 9.58333 202.097 10.4891 201.367 11.593L161.763 71.594C160.968 72.7999 160.514 74.1987 160.449 75.6419C160.384 77.0851 160.712 78.519 161.396 79.7912C162.081 81.0634 163.097 82.1265 164.337 82.8677C165.577 83.6089 166.995 84.0005 168.439 84.001ZM208.044 30.522L232.782 68.001H224.24C222.119 68.001 220.084 68.8438 218.584 70.3441C217.083 71.8444 216.24 73.8792 216.24 76.001V174.942H199.847V76.001C199.847 73.8792 199.005 71.8444 197.504 70.3441C196.004 68.8438 193.969 68.001 191.847 68.001H183.305L208.044 30.522Z" stroke="#8544FF" stroke-width="6" mask="url(#path-1-outside-1_682_15424)"/>
</svg>
